<svg xmlns="http://www.w3.org/2000/svg" class="icon" width="128px" height="128.00px" viewBox="0 0 1024 1024" version="1.1" >
  <path d="M329.553 957.201c-78.445 0-142.272-63.827-142.272-142.272s63.827-142.272 142.272-142.272c50.943 0 98.343 28.13 123.667 73.351l1.735 3.101 86.493-22.74-0.037-3.618c-0.016-0.898-0.024-1.958-0.024-3.020 0-42.043 13.901-80.841 37.358-112.044l1.981-2.733-55.189-55.189-3.138 2.215c-41.987 29.341-94.104 46.883-150.32 46.883-0.065 0-0.13 0-0.195 0-146.729 0-266.113-119.347-266.113-266.087s119.384-266.087 266.124-266.087c146.888 0.168 265.919 119.199 266.087 266.071 0 62.107-22.001 122.576-61.908 170.307l-2.694 3.248 55.077 55.041 3.1-1.919c28.012-17.683 62.080-28.204 98.602-28.28 103.215 0.003 187.751 84.539 187.751 188.419s-84.5 188.417-188.417 188.417c-77.378-0.003-143.858-46.657-172.848-113.37l-2.058-4.907-82.728 21.743v3.58c-0.189 78.49-63.809 142.057-142.299 142.162zM329.553 700.305c-63.162 0-114.586 51.423-114.586 114.586s51.386 114.623 114.586 114.623c63.2 0 114.586-51.423 114.586-114.586s-51.423-114.623-114.586-114.623zM729.459 577.267c-78.445 0-142.272 63.827-142.272 142.272s63.827 142.272 142.272 142.272 142.272-63.827 142.272-142.272-63.827-142.272-142.272-142.272zM371.859 131.217c-111.115 0-201.522 90.369-201.522 201.485s90.406 201.485 201.522 201.485 201.485-90.369 201.485-201.485-90.369-201.485-201.485-201.485z"/>
  <path d="M371.859 71.229c144.348 0.147 261.325 117.125 261.472 261.458-0.090 63.955-23.1 122.505-61.254 167.904l-4.935 5.908 60.616 60.616 6.202-3.803c27.32-17.246 60.547-27.506 96.167-27.578 100.831 0.128 183.047 82.343 183.173 183.792-0.126 101.472-82.343 183.689-183.79 183.815-0.012 0-0.013 0-0.014 0-75.492 0-140.35-45.531-168.611-110.63l-3.597-8.534-90.037 23.7v7.124c-0.147 75.953-61.7 137.48-137.648 137.584-75.908 0-137.667-61.76-137.667-137.658s61.76-137.658 137.658-137.658c51.339 0.314 95.983 28.676 119.412 70.523l3.738 6.704 93.433-24.548-0.111-7.236c-0.017-1.178-0.152-2.314-0.394-3.41 0.183-40.792 13.91-78.666 36.973-109.067l4.212-5.69-60.727-60.727-6.312 4.356c-41.24 28.833-92.437 46.071-147.659 46.071-0.079 0-0.157 0-0.236 0-144.179 0-261.498-117.28-261.498-261.472s117.244-261.547 261.436-261.547M371.859 538.8c113.626 0 206.099-92.473 206.099-206.099s-92.473-206.099-206.099-206.099c-113.662 0-206.136 92.473-206.136 206.099s92.473 206.099 206.136 206.099M729.459 866.426c81.081-0.105 146.782-65.806 146.887-146.876-0.105-81.092-65.805-146.791-146.876-146.897-81.092 0.105-146.791 65.805-146.897 146.876 0.105 81.091 65.805 146.791 146.876 146.897M329.553 934.129c65.747 0 119.2-53.49 119.2-119.2s-53.49-119.2-119.2-119.2-119.2 53.49-119.2 119.2 53.453 119.2 119.2 119.2M371.859 62c-149.287 0-270.739 121.451-270.739 270.701s121.451 270.701 270.739 270.701c0.053 0 0.115 0 0.177 0 57.185 0 110.201-17.846 153.784-48.272l48.816 50.266c-23.812 31.507-38.157 71.322-38.208 114.488 0.001 0.799 0.296 1.833 0.333 2.94l-79.516 20.894c-25.139-44.926-72.65-75.713-127.691-75.713-80.956 0-146.888 65.894-146.888 146.888s65.894 146.888 146.888 146.888 146.85-65.858 146.887-146.813l75.455-19.861c30.233 69.579 98.334 117.367 177.605 117.428 106.516-0.126 192.863-86.474 192.989-193.019-0.126-106.569-86.474-192.917-193.019-193.043-36.891 0-71.037 10.927-100.386 28.942l-49.504-49.504c39.172-46.479 62.978-107.029 62.978-173.138 0-0.037 0-0.075 0-0.113 0-149.207-121.451-270.658-270.701-270.658zM371.859 529.572c-108.569 0-196.908-88.302-196.908-196.87s88.339-196.87 196.908-196.87c108.532 0 196.87 88.339 196.87 196.87s-88.339 196.87-196.87 196.87zM729.459 857.197c-75.993-0.084-137.574-61.666-137.658-137.65 0.084-76 61.666-137.582 137.65-137.665 76 0.084 137.582 61.666 137.665 137.65-0.084 76.001-61.666 137.582-137.65 137.665zM329.553 924.899c-60.653 0-109.972-49.356-109.972-109.972s49.319-109.972 109.972-109.972 109.972 49.356 109.972 109.972-49.356 109.972-109.972 109.972z"/>
</svg>