<?xml version="1.0" encoding="iso-8859-1"?>
<!-- Generator: Adobe Illustrator 23.0.2, SVG Export Plug-In . SVG Version: 6.00 Build 0)  -->
<svg version="1.1" id="&#x56FE;&#x5C42;_1" xmlns="http://www.w3.org/2000/svg" xmlns:xlink="http://www.w3.org/1999/xlink" x="0px"
	 y="0px" viewBox="0 0 1000 1000" style="enable-background:new 0 0 1000 1000;" xml:space="preserve">
<g>
	<g>
		<defs>
			<path id="XMLID_138_" d="M342.355,752.068c0,0-331.614-32.391-285.223-321.826s273.269-221.395,335.6-198.715
				s191.195,120.617,325.214,52.576s280.604,115.753,256.697,249.709c-14.433,80.871-31.958,175.372-177.317,218.255H342.355z"/>
		</defs>
		<use xlink:href="#XMLID_138_"  style="overflow:visible;fill:#FFEBE5;"/>
		<clipPath id="XMLID_2_">
			<use xlink:href="#XMLID_138_"  style="overflow:visible;"/>
		</clipPath>
		<path style="clip-path:url(#XMLID_2_);fill:#FFFFFF;" d="M125.645,378.646c-12.068,0-24.511-0.636-37.268-1.908
			c-50.472-5.032-88.896-18.483-89.278-18.618l0.605-1.709c0.381,0.135,38.635,13.523,88.899,18.527
			c46.326,4.616,112.626,2.846,165.402-31.77c53.45-35.059,83.628-96.921,89.696-183.868l1.809,0.126
			c-6.11,87.547-36.564,149.879-90.517,185.263c-23.516,15.423-51.613,25.723-83.51,30.615
			C156.958,377.531,141.63,378.646,125.645,378.646z"/>
		<path style="clip-path:url(#XMLID_2_);fill:#FFFFFF;" d="M163.935,568.541c-2.11,0-4.224-0.05-6.348-0.149
			c-25.073-1.176-51.209-9.351-77.68-24.296c-21.143-11.937-42.549-28.198-63.623-48.331c-35.862-34.26-58.649-68.345-58.875-68.686
			l1.511-1.003c0.225,0.339,22.92,34.283,58.646,68.406c32.915,31.439,83.942,69.466,140.112,72.098
			c48.469,2.292,93.442-21.818,133.688-71.595c78.537-97.137,157.067-173.684,227.099-221.368
			c71.539-48.708,131.925-65.574,174.639-48.776l-0.664,1.688c-85.034-33.444-238.174,69.86-399.664,269.596
			C253.903,544.204,210.585,568.541,163.935,568.541z"/>
		<path style="clip-path:url(#XMLID_2_);fill:#FFFFFF;" d="M97.422,738.073l-1.42-1.128c0.314-0.395,32.011-39.906,83.66-71.872
			c30.351-18.785,61.559-31.338,92.757-37.309c39.018-7.466,78.121-4.604,116.222,8.512c25.703,8.849,49.365,6.05,70.328-8.316
			c22.727-15.574,42.734-44.934,59.465-87.261c13.416-33.943,24.756-76.233,33.704-125.695
			c15.242-84.253,18.278-161.095,18.306-161.862l1.813,0.069c-0.029,0.767-3.07,77.739-18.334,162.115
			c-8.969,49.579-20.341,91.985-33.802,126.039c-16.866,42.669-37.095,72.307-60.126,88.09
			c-21.463,14.709-45.669,17.581-71.944,8.535c-85.585-29.464-160.016-0.712-207.386,28.595
			C129.269,698.382,97.734,737.68,97.422,738.073z"/>
		<path style="clip-path:url(#XMLID_2_);fill:#FFFFFF;" d="M944.008,497.65c-47.098,0.001-88.371-4.636-123.385-13.895
			c-48.997-12.957-86.288-35.076-110.837-65.74c-30.609-38.235-35.757-83.159-34.687-114.113
			c1.159-33.507,9.664-58.336,9.749-58.583l1.714,0.595c-0.085,0.244-8.512,24.863-9.653,58.113
			c-1.051,30.634,4.047,75.083,34.302,112.867c24.304,30.351,61.275,52.258,109.887,65.111
			c58.364,15.432,134.267,17.965,225.604,7.533l0.205,1.801C1010.067,495.548,975.715,497.65,944.008,497.65z"/>
		<path style="clip-path:url(#XMLID_2_);fill:#FFFFFF;" d="M403.639,795.283l-1.464-1.07c38.85-53.139,96.32-93.067,170.815-118.673
			c59.541-20.466,130.032-31.882,209.515-33.93c135.283-3.467,251.31,21.76,252.466,22.015l-0.391,1.771
			c-1.154-0.254-116.99-25.445-252.064-21.972C657.974,646.637,491.146,675.591,403.639,795.283z"/>
	</g>
	<path style="fill:#26205C;" d="M969.65,767.836H95.418c-3.752,0-6.821-3.069-6.821-6.821l0,0c0-3.752,3.069-6.821,6.821-6.821
		H969.65c3.752,0,6.821,3.069,6.821,6.821l0,0C976.471,764.766,973.401,767.836,969.65,767.836z"/>
	<path style="fill:#95AE3A;" d="M410.257,311.968c0,0-28.8,84.323,35.874,123.734C446.13,435.701,487.057,353.96,410.257,311.968z"
		/>
	<path style="fill:#ADCD55;" d="M443.983,398.817c0,0,6.821-83.747,67.453-98.147c0,0,24.632,54.947-11.368,98.147H443.983z"/>
	<path style="fill:#95AE3A;" d="M447.015,603.07c0,0,13.642-101.452-94.358-128.979c0,0-51.916,110.031,85.642,178.242
		L447.015,603.07z"/>
	<path style="fill:#ADCD55;" d="M464.825,454.396c0,0-55.326-66.74-100.421-61.349c0,0-38.274,105.812,100.421,150.528V454.396z"/>
	<path style="fill:#ADCD55;" d="M444.362,671.28c0,0-28.421-78.821-135.284-45.853c0,0-14.779,100.042,130.358,111.789
		L444.362,671.28z"/>
	<path style="opacity:0.51;fill:#607035;" d="M517.14,364.786l-83.141,9.048c0,0-11.49,1.109-10.161,32.785v329.08l17.239,1.518
		L517.14,364.786z"/>
	<path style="fill:#607035;" d="M479.478,369.001c-0.056,0-0.114-0.01-0.17-0.029c-0.26-0.094-0.394-0.381-0.3-0.641
		c0.597-1.653,14.724-40.611,24.346-51.695c0.181-0.207,0.497-0.23,0.705-0.05c0.208,0.182,0.231,0.497,0.05,0.706
		c-9.5,10.943-24.015,50.976-24.16,51.379C479.875,368.874,479.682,369.001,479.478,369.001z"/>
	<path style="fill:#607035;" d="M484.495,355.9c-0.124,0-0.248-0.046-0.345-0.138c-11.773-11.192-5.199-26.853-5.131-27.01
		c0.109-0.254,0.402-0.373,0.657-0.261c0.253,0.109,0.37,0.403,0.261,0.657c-0.065,0.15-6.358,15.184,4.903,25.889
		c0.2,0.19,0.208,0.507,0.018,0.707C484.759,355.848,484.627,355.9,484.495,355.9z"/>
	<path style="fill:#607035;" d="M481.339,364.786c-0.195,0-0.303-0.004-0.315-0.004c-0.276-0.012-0.49-0.245-0.479-0.521
		c0.012-0.276,0.227-0.484,0.521-0.479c0.153,0.007,16.049,0.503,28.617-12.804c0.189-0.2,0.505-0.211,0.707-0.02
		c0.201,0.189,0.21,0.506,0.02,0.707C498.509,364.267,483.677,364.786,481.339,364.786z"/>
	<path style="fill:#607035;" d="M433.499,384.159c-0.215,0-0.414-0.14-0.479-0.356l-17.937-59.874
		c-0.079-0.265,0.071-0.543,0.335-0.622c0.265-0.081,0.543,0.07,0.623,0.335l17.937,59.874c0.079,0.265-0.071,0.543-0.335,0.622
		C433.595,384.153,433.546,384.159,433.499,384.159z"/>
	<path style="fill:#607035;" d="M422.858,350.248c-9.968,0-12.927-5.781-13.05-6.031c-0.122-0.247-0.02-0.546,0.227-0.668
		c0.247-0.12,0.547-0.021,0.669,0.226c0.116,0.229,2.91,5.672,12.625,5.469c0.274-0.004,0.504,0.215,0.509,0.49
		c0.005,0.276-0.214,0.505-0.491,0.51C423.183,350.246,423.019,350.248,422.858,350.248z"/>
	<path style="fill:#607035;" d="M429.823,371.891c-0.127,0-0.255-0.049-0.353-0.146c-0.196-0.194-0.197-0.511-0.002-0.707
		c0.129-0.13,12.924-13.146,11.367-23.923c-0.04-0.273,0.15-0.526,0.423-0.566c0.274-0.034,0.527,0.15,0.566,0.424
		c1.628,11.271-11.104,24.225-11.647,24.771C430.08,371.842,429.952,371.891,429.823,371.891z"/>
	<path style="fill:#607035;" d="M424.53,477.633c-0.137,0-0.274-0.057-0.373-0.167c-13.884-15.51-50.08-70.021-50.444-70.57
		c-0.153-0.23-0.09-0.54,0.14-0.693c0.23-0.151,0.54-0.091,0.693,0.141c0.364,0.548,36.52,54.999,50.356,70.457
		c0.184,0.205,0.167,0.521-0.039,0.705C424.769,477.591,424.649,477.633,424.53,477.633z"/>
	<path style="fill:#607035;" d="M389.199,438.802c-14.975,0-24.411-9.209-24.517-9.314c-0.195-0.195-0.196-0.512-0.001-0.707
		c0.195-0.196,0.512-0.195,0.707-0.002c0.117,0.116,11.841,11.536,29.839,8.517c0.271-0.054,0.53,0.138,0.576,0.41
		c0.045,0.272-0.138,0.53-0.411,0.576C393.238,438.643,391.17,438.802,389.199,438.802z"/>
	<path style="fill:#607035;" d="M401.099,446.566c-0.101,0-0.202-0.03-0.29-0.093c-0.225-0.16-0.277-0.473-0.117-0.697
		c9.889-13.873,2.782-32.186,2.709-32.369c-0.102-0.256,0.023-0.547,0.279-0.649c0.258-0.1,0.547,0.023,0.649,0.279
		c0.075,0.188,7.385,18.996-2.824,33.319C401.409,446.492,401.255,446.566,401.099,446.566z"/>
	<path style="fill:#607035;" d="M405.681,472.501c-18.063,0-27.964-8.148-28.084-8.25c-0.211-0.178-0.237-0.493-0.059-0.704
		c0.177-0.211,0.493-0.238,0.704-0.06c0.144,0.121,14.664,12.028,40.749,6.592c0.267-0.067,0.535,0.117,0.591,0.387
		c0.057,0.271-0.117,0.535-0.387,0.592C414.285,472.082,409.773,472.501,405.681,472.501z"/>
	<path style="fill:#607035;" d="M424.53,597.506c-0.103,0-0.207-0.031-0.296-0.097c-44.475-32.698-61.289-101.157-61.453-101.845
		c-0.064-0.269,0.102-0.538,0.37-0.603c0.269-0.066,0.538,0.102,0.603,0.37c0.164,0.684,16.896,68.792,61.073,101.271
		c0.222,0.164,0.27,0.477,0.106,0.699C424.835,597.436,424.684,597.506,424.53,597.506z"/>
	<path style="fill:#607035;" d="M375.836,531.582c-0.165,0-0.326-0.081-0.421-0.229c-0.149-0.232-0.082-0.542,0.151-0.691
		c10.428-6.695,9.445-26.271,9.434-26.469c-0.016-0.275,0.195-0.512,0.471-0.527c0.274-0.019,0.511,0.194,0.527,0.471
		c0.047,0.828,1.029,20.355-9.892,27.367C376.022,531.557,375.929,531.582,375.836,531.582z"/>
	<path style="fill:#607035;" d="M384.994,550.083c-0.011,0-0.023,0-0.034-0.001c-34.373-2.33-36.272-14.031-36.336-14.528
		c-0.035-0.273,0.158-0.524,0.432-0.56c0.279-0.038,0.522,0.157,0.56,0.429c0.019,0.129,2.044,11.399,35.412,13.661
		c0.276,0.019,0.484,0.258,0.465,0.533C385.475,549.881,385.255,550.083,384.994,550.083z"/>
	<path style="fill:#607035;" d="M401.1,574.483c-0.16,0-0.317-0.076-0.414-0.219c-0.156-0.228-0.097-0.539,0.131-0.694
		c24.115-16.439,16.868-42.089,16.792-42.346c-0.078-0.265,0.073-0.543,0.338-0.621c0.264-0.075,0.542,0.073,0.621,0.338
		c0.078,0.264,7.523,26.609-17.187,43.455C401.294,574.454,401.197,574.483,401.1,574.483z"/>
	<path style="fill:#607035;" d="M396.929,589.455c-17.285,0-26.594-10.303-26.71-10.435c-0.182-0.207-0.162-0.522,0.045-0.705
		c0.207-0.183,0.522-0.163,0.706,0.045c0.144,0.162,14.607,16.115,41.072,7.585c0.264-0.084,0.545,0.06,0.629,0.322
		s-0.06,0.545-0.323,0.629C406.663,588.73,401.514,589.455,396.929,589.455z"/>
	<path style="fill:#607035;" d="M429.229,695.367c-0.111,0-0.224-0.037-0.316-0.113c-23.421-19.187-103.085-52.054-103.989-52.44
		c-0.254-0.108-0.372-0.402-0.264-0.656c0.109-0.255,0.404-0.372,0.656-0.264c0.905,0.387,80.701,33.311,104.23,52.586
		c0.213,0.175,0.245,0.49,0.07,0.703C429.518,695.304,429.374,695.367,429.229,695.367z"/>
	<path style="fill:#607035;" d="M368.115,662.169c-0.03,0-0.061-0.003-0.091-0.009c-0.271-0.05-0.451-0.311-0.401-0.582
		c4.476-24.248-18.499-36.344-18.731-36.463c-0.246-0.127-0.343-0.428-0.217-0.674c0.126-0.245,0.429-0.341,0.673-0.217
		c0.239,0.123,23.868,12.563,19.259,37.535C368.562,662.001,368.352,662.169,368.115,662.169z"/>
	<path style="fill:#607035;" d="M366.853,691.792c-14.804,0-23.981-7.753-24.13-7.883c-0.208-0.182-0.23-0.497-0.049-0.705
		c0.181-0.208,0.497-0.231,0.705-0.049c0.239,0.208,24.234,20.419,57.41-5.803c0.218-0.171,0.532-0.133,0.702,0.083
		c0.171,0.216,0.135,0.53-0.082,0.702C388.177,688.595,376.354,691.792,366.853,691.792z"/>
	<path style="fill:#607035;" d="M425.926,691.868c-0.252,0-0.469-0.19-0.497-0.447c-3.96-37.188-30.112-53.28-30.376-53.438
		c-0.236-0.142-0.313-0.449-0.171-0.686c0.142-0.237,0.449-0.315,0.686-0.172c0.268,0.16,26.841,16.487,30.856,54.19
		c0.029,0.274-0.169,0.521-0.444,0.55C425.961,691.867,425.943,691.868,425.926,691.868z"/>
	<g>
		<path style="fill:#5A78EC;" d="M56.572,373.834h87.411c0,0,1.877,45.937,36.305,94.101H88.909
			C88.909,467.935,60.109,438.789,56.572,373.834z"/>
		<rect x="76.278" y="368.754" style="fill:#FFFFFF;" width="50.274" height="8.589"/>
		<circle style="fill:#FFFFFF;" cx="95.088" cy="406.007" r="4.8"/>
		<circle style="fill:#FFFFFF;" cx="123.13" cy="406.007" r="4.8"/>
		<path style="fill:#FFFFFF;" d="M110.625,428.396c-27.205,0-29.014-22.095-29.029-22.322c-0.037-0.551,0.378-1.026,0.929-1.064
			c0.556-0.012,1.028,0.378,1.066,0.929c0.06,0.853,1.739,20.458,27.01,20.458c0.576,0,1.164-0.01,1.764-0.03
			c7.98-0.276,13.875-2.622,17.519-6.97c5.088-6.071,4.025-14.042,4.014-14.122c-0.078-0.547,0.303-1.053,0.85-1.131
			c0.548-0.078,1.053,0.303,1.131,0.85c0.051,0.362,1.193,8.94-4.461,15.688c-4.024,4.802-10.411,7.387-18.982,7.684
			C111.82,428.385,111.215,428.396,110.625,428.396z"/>
	</g>
	<g>
		<g>
			<defs>
				<path id="XMLID_135_" d="M255.342,713.725h-31.326c0,0,2.088,19.724-18.378,21.812c0,0-25.061,2.088-22.137,18.656h71.841
					V713.725z"/>
			</defs>
			<use xlink:href="#XMLID_135_"  style="overflow:visible;fill:#26205C;"/>
			<clipPath id="XMLID_3_">
				<use xlink:href="#XMLID_135_"  style="overflow:visible;"/>
			</clipPath>
			
				<rect x="163.87" y="748.5" transform="matrix(-1 -4.492019e-11 4.492019e-11 -1 439.2605 1499.2037)" style="clip-path:url(#XMLID_3_);fill:#FFFFFF;" width="111.52" height="2.204"/>
		</g>
		<polygon style="fill:#FFB7B7;" points="227.536,703.344 226.211,713.725 254.26,713.725 254.426,703.344 		"/>
		<polygon style="fill:#FFB7B7;" points="325.101,703.344 326.426,713.725 298.377,713.725 298.212,703.344 		"/>
		<circle style="fill:#FFB7B7;" cx="254.532" cy="349.521" r="21.865"/>
		<path style="fill:#FFB7B7;" d="M239.491,350.905c0,0-7.294,3.292-10.29,5.915s5.066,4.113,9.169,2.475
			C242.472,357.657,239.491,350.905,239.491,350.905z"/>
		<path style="fill:#26205C;" d="M232.795,342.497c0,0,4.459,0.079,9.239-4.704c0,0,0.929,14.17,18.364,11.967
			c0,0,4.675-10.503,8.571,0.585l7.207,2.305l1.121,0.085c0,0,3.852-21.49-16.719-26.358
			C240.006,321.51,232.795,342.497,232.795,342.497z"/>
		<circle style="fill:#26205C;" cx="269.168" cy="327.158" r="6.212"/>
		<circle style="fill:#26205C;" cx="281.758" cy="311.968" r="16.979"/>
		<path style="fill:#FFB7B7;" d="M343.833,329.362c-0.584-0.179-1.172-0.293-1.758-0.355l4.408-14.369
			c0.331-1.079-0.281-2.233-1.36-2.564c-1.079-0.331-2.233,0.281-2.564,1.36l-4.972,16.205c-2.327,0.938-4.26,2.793-5.231,5.255
			l-1.316-2.758c-0.491-1.028-1.733-1.468-2.761-0.977c-1.028,0.491-1.468,1.733-0.977,2.761l3.235,6.779l-2.011,6.555
			c-1.514,4.936,1.285,10.213,6.221,11.727l0,0c4.936,1.514,10.213-1.285,11.727-6.221l3.581-11.671
			C351.568,336.153,348.769,330.876,343.833,329.362z"/>
		<polygon style="fill:#E9A621;" points="114.387,362.823 145.86,419.772 180.288,421.285 147.338,359.841 112.4,359.841 		"/>
		<g>
			<defs>
				<path id="XMLID_134_" d="M346.315,352.593l-17.777-5.454c-1.142-0.35-2.362,0.297-2.713,1.439l-11.666,38.024h-27.585
					c-0.968,0-1.907,0.125-2.811,0.34h-4.337c-0.201,0-0.39-0.1-0.51-0.269l-3.212-4.506c-1-1.404-2.569-2.23-4.235-2.23h-25.685
					c-2.11,0-4.128,0.907-5.588,2.512l-3.79,4.167c-0.116,0.127-0.274,0.201-0.441,0.207l-4.551,0.148
					c-4.929-1.218-10.328,0.71-13.248,5.188l-28.563,43.804c-3.686,5.654-2.077,13.296,3.577,16.982
					c5.654,3.686,13.295,2.077,16.982-3.577l11.369-17.435l0.886,36.422c0.009,0.373,0.305,0.667,0.659,0.655l70.63-2.401
					c0.344-0.012,0.618-0.309,0.618-0.672v-54.792h25.661c0.652,0,1.287-0.066,1.912-0.165c4.997,0.112,9.695-3.08,11.229-8.08
					l14.611-47.626C348.084,354.146,347.444,352.939,346.315,352.593z"/>
			</defs>
			<use xlink:href="#XMLID_134_"  style="overflow:visible;fill:#A9D4CA;"/>
			<clipPath id="XMLID_4_">
				<use xlink:href="#XMLID_134_"  style="overflow:visible;"/>
			</clipPath>
			<polygon style="clip-path:url(#XMLID_4_);fill:#94BEB3;" points="218.9,439.858 225.526,418.834 226.851,474.091 216.25,474.312 
							"/>
			<polygon style="clip-path:url(#XMLID_4_);fill:#94BEB3;" points="286.667,410.742 294.324,411.146 295.318,480.496 			"/>
		</g>
		<polygon style="fill:#FFB000;" points="189.525,350.905 147.338,359.841 180.288,421.285 225.526,425.808 		"/>
		<path style="fill:#FFB7B7;" d="M171.566,401l-8.365-8.365l0.651-6.463c0.1-0.997-0.633-1.895-1.63-1.996
			c-0.997-0.1-1.895,0.633-1.996,1.63l-0.353,3.501l-1.359-1.359c-4.066-4.066-10.719-4.066-14.785,0v0
			c-4.066,4.066-4.066,10.719,0,14.785l13.051,13.052c4.066,4.066,10.719,4.066,14.785,0
			C175.631,411.719,175.631,405.066,171.566,401z"/>
		<path style="fill:#A9D4CA;" d="M168.474,395.338l36.609,36.609c4.773,4.773,4.773,12.582,0,17.355l0,0
			c-4.773,4.773-12.582,4.773-17.355,0l-36.601-36.601c-0.863-0.863-0.863-2.276,0-3.14l14.223-14.223
			C166.209,394.479,167.614,394.479,168.474,395.338z"/>
		<g>
			<defs>
				<polygon id="SVGID_81_" points="222.417,468.356 214.164,703.344 262.851,703.344 261.857,497.723 292.773,703.344 
					332.257,703.344 294.324,465.938 				"/>
			</defs>
			<use xlink:href="#SVGID_81_"  style="overflow:visible;fill:#8EA594;"/>
			<clipPath id="SVGID_1_">
				<use xlink:href="#SVGID_81_"  style="overflow:visible;"/>
			</clipPath>
			<polygon style="clip-path:url(#SVGID_1_);fill:#7E9A84;" points="201.894,474.781 310.115,469.481 307.568,453.579 
				204.986,463.315 			"/>
		</g>
		<g>
			<defs>
				<path id="XMLID_131_" d="M329.33,713.725h-33.129c0,0-0.883,18.604-9.055,20.234s-9.055,20.234-9.055,20.234h54.166
					L329.33,713.725z"/>
			</defs>
			<use xlink:href="#XMLID_131_"  style="overflow:visible;fill:#26205C;"/>
			<clipPath id="XMLID_5_">
				<use xlink:href="#XMLID_131_"  style="overflow:visible;"/>
			</clipPath>
			<rect x="273.086" y="748.48" style="clip-path:url(#XMLID_5_);fill:#FFFFFF;" width="66.666" height="2.186"/>
		</g>
		<path style="fill:#26205C;" d="M259.007,394.066c-13.507,0-25.646-2.37-26.407-2.522c-0.542-0.107-0.893-0.634-0.786-1.176
			c0.108-0.542,0.633-0.9,1.176-0.785c0.277,0.054,28.04,5.475,46.137,0.023c0.528-0.16,1.086,0.14,1.246,0.669
			c0.159,0.528-0.14,1.086-0.669,1.245C273.366,393.431,266.002,394.066,259.007,394.066z"/>
		<path style="fill:#26205C;" d="M320.422,412.155c-0.316,0-0.499-0.012-0.513-0.013l-38.178-0.99
			c-0.552-0.015-0.988-0.474-0.974-1.026c0.014-0.552,0.47-1.003,1.025-0.974l38.228,0.993c0.442,0.031,9.666,0.587,12.412-8.359
			c0.162-0.528,0.722-0.822,1.25-0.663c0.528,0.162,0.825,0.722,0.663,1.249C331.515,411.563,322.654,412.155,320.422,412.155z"/>
		<path style="fill:#26205C;" d="M197.167,425.364c-0.258,0-0.517-0.1-0.712-0.298l-21.953-22.285
			c-0.388-0.394-0.383-1.027,0.011-1.414c0.394-0.389,1.026-0.383,1.414,0.01l21.953,22.285c0.388,0.394,0.383,1.027-0.011,1.414
			C197.674,425.269,197.42,425.364,197.167,425.364z"/>
		<path style="fill:#FFFFFF;" d="M221.109,698.05c-0.008,0-0.017,0-0.025,0c-0.552-0.014-0.988-0.473-0.975-1.024l5.103-206.56
			c0.012-0.478,0.359-0.88,0.831-0.961c4.996-0.857,8.428-11.574,9.33-15.631c0.12-0.539,0.652-0.874,1.193-0.76
			c0.539,0.12,0.879,0.654,0.759,1.193c-0.138,0.624-3.351,14.782-10.132,16.968l-5.084,205.799
			C222.095,697.618,221.65,698.05,221.109,698.05z"/>
		<path style="fill:#FFFFFF;" d="M326.425,698.05c-0.483,0-0.908-0.35-0.986-0.842L292,488.342
			c-10.978-3.486-13.463-15.525-13.566-16.046c-0.106-0.541,0.246-1.065,0.788-1.173c0.542-0.104,1.067,0.245,1.175,0.787
			c0.023,0.117,2.459,11.806,12.761,14.69c0.376,0.105,0.656,0.419,0.718,0.805l33.538,209.486c0.087,0.546-0.284,1.059-0.829,1.146
			C326.531,698.046,326.478,698.05,326.425,698.05z"/>
	</g>
	<path style="fill:#232323;" d="M414.646,258.354c-0.552,0-1-0.447-1-1v-130.61c0-0.384,0.22-0.733,0.565-0.9
		c0.346-0.168,0.756-0.121,1.057,0.117c48.412,38.498,100.396,34.872,135.481,25.052c38.079-10.657,65.007-30.678,65.274-30.879
		c0.272-0.204,0.63-0.258,0.95-0.137c0.319,0.119,0.556,0.393,0.628,0.726c0.188,0.874,19.368,87.564,64.985,103.859
		c7.107,2.538,14.526,1.997,22.051-1.608c35.453-16.991,63.292-96.264,63.568-97.063c0.182-0.521,0.752-0.8,1.272-0.616
		c0.522,0.181,0.798,0.75,0.617,1.272c-1.143,3.293-28.395,80.861-64.593,98.21c-8.024,3.844-15.96,4.412-23.588,1.688
		c-24.448-8.732-41.172-36.952-50.896-59.087c-8.935-20.336-13.765-39.406-15.031-44.755c-5.739,4.042-30.881,20.851-64.698,30.315
		c-22.599,6.324-44.603,8.188-65.403,5.544c-25.369-3.229-48.991-13.212-70.24-29.682v128.554
		C415.646,257.906,415.198,258.354,414.646,258.354z"/>
	<polygon style="fill:#232323;" points="379.599,294.764 454.436,294.764 414.646,255.354 	"/>
	<path style="fill:#FFFFFF;" d="M197.167,609.007l-30.953-34.524H72.466c-4.24,0-7.677-3.437-7.677-7.677v-60.208
		c0-4.24,3.437-7.677,7.677-7.677H189.49c4.24,0,7.677,3.437,7.677,7.677V609.007z"/>
	<path style="fill:#FF6666;" d="M261.84,248.754H125.595c-7.479,0-13.541-6.063-13.541-13.541v-83.844
		c0-7.479,6.063-13.541,13.541-13.541H261.84c7.479,0,13.541,6.063,13.541,13.541v83.844
		C275.381,242.691,269.318,248.754,261.84,248.754z"/>
	<path style="fill:#232323;" d="M268.18,245.792H131.936c-8.018,0-14.542-6.523-14.542-14.541v-83.844
		c0-8.018,6.523-14.541,14.542-14.541H268.18c8.018,0,14.542,6.523,14.542,14.541v83.844
		C282.722,239.269,276.198,245.792,268.18,245.792z M131.936,134.866c-6.916,0-12.542,5.626-12.542,12.541v83.844
		c0,6.915,5.626,12.541,12.542,12.541H268.18c6.916,0,12.542-5.626,12.542-12.541v-83.844c0-6.915-5.626-12.541-12.542-12.541
		H131.936z"/>
	<g>
		<path style="fill:#FFFFFF;" d="M234.05,204.594c-5.179,7.028-11.467,10.48-18.989,10.48c-6.289,0-10.851-1.973-13.687-6.042
			c-3.329,3.453-7.398,5.056-12.331,5.056c-1.973,0-3.946-0.369-5.918-1.109c-7.029-2.466-10.481-7.769-10.481-15.906
			c0-8.139,2.59-15.414,7.769-21.579c5.425-6.535,12.084-9.864,20.222-9.864c4.069,0,6.782,1.109,8.262,3.083
			c0.37-0.493,0.74-1.11,0.986-1.85h13.934l-7.645,33.292c-0.617,2.59-0.863,4.069-0.863,4.316c0,1.479,0.617,2.096,1.85,2.096
			c2.713,0,5.302-1.973,7.892-5.919c1.973-2.959,3.329-6.165,4.316-9.617c0.616-2.713,0.986-5.179,0.986-7.646
			c0-17.016-10.974-25.524-32.923-25.524c-9.495,0-17.016,3.576-22.565,10.481c-5.179,6.535-7.769,14.673-7.769,24.291
			c0,9.125,2.959,16.523,8.878,22.195c5.918,5.795,13.44,8.632,22.688,8.632c8.878,0,17.263-1.604,25.401-4.933l2.466,6.288
			c-10.851,5.426-20.099,8.016-27.744,8.016c-9.865,0-18.743-1.85-26.388-5.796c-8.631-4.192-14.92-10.357-18.989-18.619
			c-2.712-5.426-4.069-10.975-4.069-16.893c0-12.577,4.932-22.936,14.797-30.95c9.125-7.398,20.222-11.221,33.292-11.221
			c12.084,0,22.072,2.589,29.84,7.645c9.001,6.042,13.563,14.797,13.563,26.265C240.832,191.154,238.489,198.305,234.05,204.594z
			 M200.88,174.63c-2.22,0-4.439,2.097-6.535,6.166c-1.48,2.959-2.589,6.042-3.329,9.248c-0.74,2.712-0.987,5.302-0.987,7.892
			c0,3.822,0.987,5.672,2.959,5.672c3.576,0,6.412-3.329,8.631-9.988c1.603-5.056,2.466-9.987,2.466-14.673
			C204.086,176.111,202.977,174.63,200.88,174.63z"/>
	</g>
	<path style="fill:#5A78EC;" d="M172.404,524.628H78.488c-1.216,0-2.211-0.995-2.211-2.211v-8.21c0-1.216,0.995-2.211,2.211-2.211
		h93.916c1.216,0,2.211,0.995,2.211,2.211v8.21C174.615,523.633,173.62,524.628,172.404,524.628z"/>
	<path style="fill:#5A78EC;" d="M142.025,542.536H78.488c-1.216,0-2.211-0.995-2.211-2.211v-8.21c0-1.216,0.995-2.211,2.211-2.211
		h63.536c1.216,0,2.211,0.995,2.211,2.211v8.21C144.236,541.542,143.241,542.536,142.025,542.536z"/>
	<path style="fill:#5A78EC;" d="M116.219,562.942H78.488c-1.216,0-2.211-0.995-2.211-2.211v-8.21c0-1.216,0.995-2.211,2.211-2.211
		h37.731c1.216,0,2.211,0.995,2.211,2.211v8.21C118.43,561.947,117.435,562.942,116.219,562.942z"/>
	<g>
		<path style="fill:#3A59AF;" d="M652.025,729.097L505.714,744.9c-7.778,0.712-14.66-5.015-15.373-12.792l-55.074-340.254
			c-0.712-7.778,5.015-14.66,12.792-15.373l197.647-17.806c7.778-0.712,14.66,5.015,15.373,12.792l3.739,342.257
			C665.53,721.502,659.803,728.385,652.025,729.097z"/>
		<g>
			<defs>
				<path id="XMLID_137_" d="M795.772,371.391h72.945c9.105,0,16.487,7.381,16.487,16.487v37.458c0,4.372,1.737,8.566,4.829,11.658
					l17.374,17.374c3.092,3.092,4.829,7.285,4.829,11.658v115.437c0,4.372-1.737,8.566-4.829,11.658l-14.09,14.09
					c-3.092,3.092-4.829,7.285-4.829,11.658v118.84c0,9.105-7.381,16.487-16.487,16.487H684.554
					c-9.105,0-16.487-7.381-16.487-16.487v-349.83c0-9.105,7.381-16.487,16.487-16.487H795.772z"/>
			</defs>
			<use xlink:href="#XMLID_137_"  style="overflow:visible;fill:#FFFFFF;"/>
			<clipPath id="XMLID_6_">
				<use xlink:href="#XMLID_137_"  style="overflow:visible;"/>
			</clipPath>
			<rect x="620.699" y="342.733" style="clip-path:url(#XMLID_6_);fill:#FFD840;" width="330.442" height="59.346"/>
			<path style="opacity:0.15;clip-path:url(#XMLID_6_);fill:#D85555;" d="M734.562,381.04v39.392c0,5.207,2.069,10.201,5.751,13.884
				l16.541,16.541c3.682,3.682,5.751,8.676,5.751,13.884v117.44c0,5.207-2.069,10.201-5.751,13.884l-14.646,14.646
				c-3.682,3.682-5.751,8.676-5.751,13.884v109.967c0,10.844-2.598,19.634-13.442,19.634h-39.555
				c-10.844,0-19.634-8.791-19.634-19.634v-355.22c0-11.26,9.45-20.213,20.694-19.606l21.373,1.701
				C716.309,361.997,734.562,370.608,734.562,381.04z"/>
		</g>
		<g>
			<defs>
				<path id="XMLID_133_" d="M639.141,371.391h72.945c9.105,0,16.487,7.381,16.487,16.487v37.458c0,4.372,1.737,8.566,4.829,11.658
					l17.374,17.374c3.092,3.092,4.829,7.285,4.829,11.658v115.437c0,4.372-1.737,8.566-4.829,11.658l-14.09,14.09
					c-3.092,3.092-4.829,7.285-4.829,11.658v118.84c0,9.105-7.381,16.487-16.487,16.487H527.922
					c-9.105,0-16.487-7.381-16.487-16.487v-349.83c0-9.105,7.381-16.487,16.487-16.487H639.141z"/>
			</defs>
			<use xlink:href="#XMLID_133_"  style="overflow:visible;fill:#FFFFFF;"/>
			<clipPath id="XMLID_7_">
				<use xlink:href="#XMLID_133_"  style="overflow:visible;"/>
			</clipPath>
			<rect x="464.067" y="342.733" style="clip-path:url(#XMLID_7_);fill:#FF6666;" width="330.442" height="59.346"/>
			<path style="clip-path:url(#XMLID_7_);fill:#FF6666;" d="M714.236,442.775h-67.832c-1.221,0-2.211-0.99-2.211-2.211v-6.189
				c0-1.221,0.99-2.211,2.211-2.211h67.832c1.221,0,2.211,0.99,2.211,2.211v6.189C716.446,441.785,715.456,442.775,714.236,442.775z
				"/>
			<path style="clip-path:url(#XMLID_7_);fill:#FF6666;" d="M714.236,468.291h-67.832c-1.221,0-2.211-0.99-2.211-2.211v-6.189
				c0-1.221,0.99-2.211,2.211-2.211h67.832c1.221,0,2.211,0.99,2.211,2.211v6.189C716.446,467.301,715.456,468.291,714.236,468.291z
				"/>
			<path style="clip-path:url(#XMLID_7_);fill:#FF6666;" d="M714.236,493.807h-67.832c-1.221,0-2.211-0.99-2.211-2.211v-6.189
				c0-1.221,0.99-2.211,2.211-2.211h67.832c1.221,0,2.211,0.99,2.211,2.211v6.189C716.446,492.817,715.456,493.807,714.236,493.807z
				"/>
			<path style="opacity:0.15;clip-path:url(#XMLID_7_);fill:#D85555;" d="M666.299,754.522H467.983
				c-7.156,0-13.011-5.855-13.011-13.011V390.607c0-7.156,5.855-13.011,13.011-13.011h198.316c7.156,0,13.011,5.855,13.011,13.011
				v350.905C679.309,748.668,673.455,754.522,666.299,754.522z"/>
		</g>
		<path style="fill:#5A78EC;" d="M660.31,754.193h-214.5c-7.81,0-14.141-6.331-14.141-14.141V396.491
			c0-7.81,6.331-14.141,14.141-14.141h214.5c7.81,0,14.141,6.331,14.141,14.141v343.561
			C674.451,747.862,668.12,754.193,660.31,754.193z"/>
		<path style="fill:#FFFFFF;" d="M457.625,733.959L457.625,733.959c-1.465,0-2.653-1.188-2.653-2.653V415.874
			c0-1.465,1.188-2.653,2.653-2.653l0,0c1.465,0,2.653,1.188,2.653,2.653v315.432C460.278,732.771,459.09,733.959,457.625,733.959z"
			/>
		<path style="fill:#FFFFFF;" d="M610.72,548.88H506.13c-3.349,0-6.063-2.715-6.063-6.063V438.228c0-3.349,2.715-6.063,6.063-6.063
			H610.72c3.349,0,6.063,2.715,6.063,6.063v104.589C616.783,546.166,614.068,548.88,610.72,548.88z"/>
		<path style="fill:#5A78EC;" d="M603.836,462.986h-90.821c-0.872,0-1.579-0.707-1.579-1.579v-5.432
			c0-0.872,0.707-1.579,1.579-1.579h90.821c0.872,0,1.579,0.707,1.579,1.579v5.432C605.415,462.279,604.708,462.986,603.836,462.986
			z"/>
		<path style="fill:#5A78EC;" d="M603.836,493.807h-90.821c-0.872,0-1.579-0.707-1.579-1.579v-5.432
			c0-0.872,0.707-1.579,1.579-1.579h90.821c0.872,0,1.579,0.707,1.579,1.579v5.432C605.415,493.1,604.708,493.807,603.836,493.807z"
			/>
		<path style="fill:#5A78EC;" d="M603.836,524.628h-90.821c-0.872,0-1.579-0.707-1.579-1.579v-5.432
			c0-0.872,0.707-1.579,1.579-1.579h90.821c0.872,0,1.579,0.707,1.579,1.579v5.432C605.415,523.921,604.708,524.628,603.836,524.628
			z"/>
		<path style="fill:#FFD840;" d="M860.446,447.322H772.53c-1.112,0-2.021-0.909-2.021-2.021v-11.116
			c0-1.112,0.909-2.021,2.021-2.021h87.916c1.112,0,2.021,0.909,2.021,2.021v11.116
			C862.467,446.413,861.558,447.322,860.446,447.322z"/>
		<path style="fill:#FFD840;" d="M839.73,478.143h-67.2c-1.112,0-2.021-0.909-2.021-2.021v-11.116c0-1.112,0.909-2.021,2.021-2.021
			h67.2c1.112,0,2.021,0.909,2.021,2.021v11.116C841.751,477.234,840.842,478.143,839.73,478.143z"/>
		<path style="fill:#FF6666;" d="M812.738,495.36l-33.387,33.387c-3.341,3.342-0.975,9.055,3.751,9.055h8.883
			c2.93,0,5.304,2.375,5.304,5.304v63.626c0,2.93,2.375,5.304,5.304,5.304h13.896h13.896c2.93,0,5.304-2.375,5.304-5.304v-63.626
			c0-2.93,2.375-5.304,5.304-5.304h8.883c4.726,0,7.092-5.714,3.751-9.055l-33.387-33.387
			C818.168,493.289,814.809,493.289,812.738,495.36z"/>
		<rect x="762.93" y="634.27" style="fill:#FF6666;" width="39.916" height="39.916"/>
		<rect x="762.93" y="686.564" style="fill:#FF6666;" width="78.821" height="19.705"/>
		<path style="fill:#232323;" d="M887.98,744.189H777.786c-0.552,0-1-0.447-1-1s0.448-1,1-1H887.98
			c8.54,0,15.487-6.947,15.487-15.486v-118.84c0-4.671,1.819-9.062,5.122-12.364l14.09-14.09c2.925-2.925,4.536-6.814,4.536-10.951
			V455.021c0-4.137-1.611-8.026-4.536-10.951l-17.374-17.374c-3.303-3.303-5.122-7.693-5.122-12.364v-37.458
			c0-8.54-6.947-15.487-15.487-15.487h-72.945c-0.552,0-1-0.447-1-1s0.448-1,1-1h72.945c9.642,0,17.487,7.845,17.487,17.487v37.458
			c0,4.137,1.611,8.025,4.536,10.95l17.374,17.374c3.303,3.303,5.122,7.694,5.122,12.365v115.437c0,4.671-1.819,9.063-5.122,12.365
			l-14.09,14.09c-2.925,2.925-4.536,6.813-4.536,10.95v118.84C905.467,736.344,897.623,744.189,887.98,744.189z"/>
		<path style="fill:#232323;" d="M884.32,575.27c-0.552,0-1-0.447-1-1V452.627c0-0.553,0.448-1,1-1s1,0.447,1,1V574.27
			C885.32,574.823,884.872,575.27,884.32,575.27z"/>
		<path style="fill:#232323;" d="M729.583,589.29c-0.552,0-1-0.447-1-1V447.323c0-0.553,0.448-1,1-1s1,0.447,1,1V588.29
			C730.583,588.843,730.135,589.29,729.583,589.29z"/>
		<path style="fill:#232323;" d="M665.484,744.189h-192.26c-13.267,0-24.06-10.793-24.06-24.06V391.814
			c0-13.267,10.793-24.06,24.06-24.06h192.26c13.267,0,24.06,10.793,24.06,24.06v328.315
			C689.544,733.396,678.751,744.189,665.484,744.189z M473.225,369.754c-12.164,0-22.06,9.896-22.06,22.06v328.315
			c0,12.164,9.896,22.06,22.06,22.06h192.26c12.164,0,22.06-9.896,22.06-22.06V391.814c0-12.164-9.896-22.06-22.06-22.06H473.225z"
			/>
	</g>
	<path style="fill:#FFD840;" d="M729.583,317.852c0,18.177-11.599,33.644-27.799,39.405c-4.38,1.558-9.097,30.159-14.012,30.159
		c-4.916,0-9.634-28.602-14.016-30.16c-16.198-5.762-27.795-21.228-27.795-39.403c0-23.091,18.719-41.811,41.811-41.811
		S729.583,294.76,729.583,317.852z"/>
	<path style="fill:#FF6666;" d="M205.121,285.133h-31.835c-2.511,0-4.546-2.035-4.546-4.546l0,0c0-2.511,2.035-4.546,4.546-4.546
		h31.835c2.511,0,4.546,2.035,4.546,4.546l0,0C209.667,283.098,207.632,285.133,205.121,285.133z"/>
	<path style="fill:#FF6666;" d="M205.121,316.514h-31.835c-2.511,0-4.546-2.035-4.546-4.546l0,0c0-2.511,2.035-4.546,4.546-4.546
		h31.835c2.511,0,4.546,2.035,4.546,4.546l0,0C209.667,314.478,207.632,316.514,205.121,316.514z"/>
	<path style="fill:#FF6666;" d="M175.742,300.67h-31.835c-2.511,0-4.546-2.035-4.546-4.546v0c0-2.511,2.035-4.546,4.546-4.546
		h31.835c2.511,0,4.546,2.035,4.546,4.546v0C180.288,298.634,178.253,300.67,175.742,300.67z"/>
	<path style="fill:#FF6666;" d="M233.548,300.67h-31.835c-2.511,0-4.546-2.035-4.546-4.546v0c0-2.511,2.035-4.546,4.546-4.546
		h31.835c2.511,0,4.546,2.035,4.546,4.546v0C238.093,298.634,236.058,300.67,233.548,300.67z"/>
	<g>
		<g>
			<path style="fill:#FF6666;" d="M695.122,332.341v2.766c0,3.633-2.945,6.578-6.578,6.578l0,0c-3.633,0-6.578-2.945-6.578-6.578
				v-2.766c0-3.633-2.945-6.578-6.578-6.578h-2.765c-3.633,0-6.578-2.945-6.578-6.578l0,0c0-3.633,2.945-6.578,6.578-6.578h2.765
				c3.633,0,6.578-2.945,6.578-6.578v-2.765c0-3.633,2.945-6.578,6.578-6.578l0,0c3.633,0,6.578,2.945,6.578,6.578v2.765
				c0,3.633,2.945,6.578,6.578,6.578h2.765c3.633,0,6.578,2.945,6.578,6.578l0,0c0,3.633-2.945,6.578-6.578,6.578H701.7
				C698.067,325.763,695.122,328.708,695.122,332.341z"/>
		</g>
	</g>
	<path style="fill:#5A78EC;" d="M790.151,280.036c-14.161,0-25.682-11.521-25.682-25.683s11.521-25.682,25.682-25.682
		s25.682,11.521,25.682,25.682S804.313,280.036,790.151,280.036z M790.151,230.672c-13.059,0-23.682,10.624-23.682,23.682
		c0,13.059,10.624,23.683,23.682,23.683s23.682-10.624,23.682-23.683C813.833,241.296,803.21,230.672,790.151,230.672z"/>
	<path style="fill:#5A78EC;" d="M947.424,355.516c-1.723,0-3.372-0.754-4.516-2.119l-7.195-8.59
		c-0.828-0.988-2.088-1.504-3.37-1.384l-11.156,1.058c-2.259,0.218-4.399-0.852-5.59-2.78c-1.191-1.93-1.184-4.322,0.02-6.243
		l5.946-9.498c0.684-1.093,0.786-2.45,0.274-3.632l-4.453-10.283c-0.901-2.081-0.549-4.448,0.918-6.177s3.745-2.459,5.944-1.909
		l10.87,2.72c1.251,0.311,2.574-0.01,3.539-0.862l8.403-7.413c1.701-1.5,4.061-1.898,6.157-1.035
		c2.098,0.861,3.498,2.801,3.654,5.063l0.772,11.179c0.089,1.285,0.804,2.444,1.913,3.101l9.646,5.7
		c1.952,1.154,3.059,3.275,2.888,5.536c-0.17,2.262-1.583,4.192-3.686,5.04l-10.393,4.188c-1.195,0.481-2.076,1.52-2.356,2.777
		l-2.441,10.937c-0.494,2.213-2.169,3.921-4.372,4.457C948.369,355.46,947.894,355.516,947.424,355.516z M944.441,352.112
		c0.979,1.169,2.448,1.652,3.926,1.29c1.48-0.36,2.562-1.463,2.893-2.949l2.441-10.937c0.424-1.9,1.755-3.47,3.561-4.197
		l10.393-4.188c1.413-0.569,2.325-1.815,2.439-3.335c0.115-1.519-0.6-2.889-1.911-3.663l-9.646-5.701
		c-1.676-0.991-2.757-2.742-2.891-4.684l-0.772-11.179c-0.105-1.52-1.009-2.772-2.418-3.352c-1.409-0.575-2.933-0.322-4.074,0.686
		l-8.403,7.413c-1.46,1.287-3.462,1.774-5.348,1.302l-10.871-2.72c-1.475-0.369-2.947,0.104-3.933,1.264
		c-0.986,1.161-1.213,2.689-0.608,4.088l4.453,10.283c0.774,1.785,0.62,3.837-0.414,5.487l-5.946,9.498
		c-0.808,1.291-0.813,2.836-0.013,4.132c0.8,1.296,2.18,1.975,3.7,1.841l11.156-1.058c1.937-0.188,3.841,0.598,5.091,2.089
		L944.441,352.112z"/>
	<path style="fill:#5A78EC;" d="M945.58,343.898c-1.187,0-2.323-0.52-3.111-1.46l-4.502-5.375c-0.439-0.524-1.115-0.804-1.787-0.733
		l-6.98,0.661c-1.551,0.146-3.031-0.587-3.852-1.916s-0.815-2.978,0.014-4.302l3.721-5.942c0.362-0.579,0.417-1.3,0.145-1.926
		l-2.786-6.435c-0.621-1.434-0.379-3.063,0.631-4.255s2.579-1.7,4.096-1.316l6.802,1.702c0.663,0.163,1.364-0.007,1.876-0.457
		l5.258-4.639c1.172-1.032,2.798-1.305,4.243-0.714c1.445,0.594,2.41,1.93,2.518,3.488l0.483,6.995
		c0.047,0.682,0.426,1.296,1.014,1.643l6.037,3.567c1.345,0.796,2.108,2.258,1.99,3.815c-0.118,1.558-1.091,2.888-2.54,3.472
		l-6.503,2.622c-0.634,0.255-1.101,0.805-1.249,1.472l-1.528,6.843c-0.34,1.524-1.495,2.701-3.012,3.071
		C946.231,343.859,945.904,343.898,945.58,343.898z M944.002,341.153c0.518,0.619,1.296,0.876,2.082,0.684
		c0.784-0.191,1.357-0.775,1.533-1.563l1.528-6.843c0.292-1.31,1.209-2.391,2.454-2.892l6.503-2.622
		c0.749-0.302,1.232-0.962,1.293-1.767c0.061-0.806-0.318-1.532-1.013-1.943l-6.036-3.566c-1.155-0.683-1.9-1.889-1.992-3.228
		l-0.483-6.994c-0.056-0.806-0.535-1.47-1.282-1.776c-0.748-0.307-1.555-0.171-2.16,0.363l-5.258,4.639
		c-1.006,0.887-2.384,1.223-3.684,0.896l-6.803-1.702c-0.782-0.196-1.563,0.056-2.085,0.671c-0.522,0.615-0.643,1.426-0.322,2.166
		l2.787,6.435c0.533,1.23,0.426,2.644-0.285,3.781l-3.721,5.942c-0.428,0.685-0.431,1.504-0.007,2.19
		c0.423,0.688,1.154,1.04,1.961,0.977l6.98-0.662c1.333-0.135,2.646,0.412,3.508,1.439L944.002,341.153z"/>
	<circle style="fill:#5A78EC;" cx="815.833" cy="328.449" r="9.258"/>
</g>
</svg>
