<?xml version="1.0" encoding="iso-8859-1"?>
<!-- Generator: Adobe Illustrator 23.0.2, SVG Export Plug-In . SVG Version: 6.00 Build 0)  -->
<svg version="1.1" id="&#x56FE;&#x5C42;_1" xmlns="http://www.w3.org/2000/svg" xmlns:xlink="http://www.w3.org/1999/xlink" x="0px"
	 y="0px" viewBox="0 0 1000 1000" style="enable-background:new 0 0 1000 1000;" xml:space="preserve">
<g>
	<g>
		<defs>
			<path id="XMLID_104_" d="M206.592,732.018c0,0-234.65-89.053-123.69-393.621c0,0,66.912-163.431,243.686-138.421
				c0,0,64.468,10.232,128.011,48.884s178.743-44.337,231.416-63.663s203.06-8.124,222.063,125.098
				c17.963,125.931-139.453,395.576-222.063,421.723H206.592z"/>
		</defs>
		<use xlink:href="#XMLID_104_"  style="overflow:visible;fill:#FFEBE5;"/>
		<clipPath id="XMLID_2_">
			<use xlink:href="#XMLID_104_"  style="overflow:visible;"/>
		</clipPath>
		<path style="clip-path:url(#XMLID_2_);fill:#FFFFFF;" d="M131.71,348.451c-1.579,0-3.165-0.049-4.764-0.148
			c-37.148-2.315-73.402-31.496-97.273-55.568c-25.8-26.017-43.097-51.833-43.269-52.091l1.664-1.109
			c0.171,0.257,17.379,25.937,43.05,51.817c23.622,23.815,59.444,52.681,95.955,54.955c24.305,1.503,46.224-8.851,65.175-30.803
			c41.627-48.222,100.24-85.795,165.042-105.798c62.894-19.415,125.447-20.785,176.136-3.857l-0.634,1.896
			c-106.588-35.595-255.508,12.312-339.03,109.065C175.623,337.823,154.766,348.451,131.71,348.451z"/>
		<path style="clip-path:url(#XMLID_2_);fill:#FFFFFF;" d="M-115.426,542.656l-1.579-1.227c0.368-0.474,37.744-47.73,117.855-77.519
			c47.017-17.483,99.353-25.647,155.563-24.232c70.216,1.753,146.702,18.509,227.334,49.803
			c80.977,31.429,134.42,33.528,158.844,6.238c52.825-59.019-40.997-238.852-76.316-306.551
			c-11.118-21.31-13.248-25.606-12.694-26.989c0.127-0.316,0.381-0.56,0.697-0.667l0.643,1.895c0.408-0.139,0.568-0.517,0.563-0.688
			c0.046,1.529,5.57,12.118,12.564,25.524c35.495,68.034,129.782,248.759,76.034,308.81c-11.717,13.092-29.83,19.636-54.164,19.638
			c-27.659,0.002-63.36-8.449-106.894-25.345C200.953,420.683,75.08,438.443,1.547,465.786
			C-78.037,495.378-115.062,542.188-115.426,542.656z"/>
		<path style="clip-path:url(#XMLID_2_);fill:#FFFFFF;" d="M961.035,732.539c-1.496-2.448-34.662-23.835-99.238-43.104
			c-55.503-16.561-145.372-34.356-258.311-25.081c-62.331,5.118-101.127,13.423-129.455,19.487
			c-64.968,13.907-64.969,13.906-139.552-74.535c-4.263-5.056-8.771-10.401-13.551-16.052
			c-23.482-27.761-53.317-42.221-88.676-42.978c-65.159-1.417-138.575,44.13-188.711,82.568
			c-54.393,41.699-93.831,84.268-94.223,84.692l-1.47-1.355c0.394-0.427,39.948-43.121,94.477-84.925
			c32.041-24.563,62.913-44.024,91.758-57.842c36.122-17.302,69.18-25.771,98.213-25.139c35.958,0.77,66.292,15.468,90.161,43.687
			c4.78,5.65,9.289,10.997,13.552,16.054c73.811,87.524,73.812,87.522,137.604,73.868c28.381-6.075,67.25-14.396,129.709-19.525
			c113.252-9.298,203.378,8.548,259.047,25.159c61.869,18.461,97.931,39.982,100.373,43.978L961.035,732.539z"/>
		<path style="clip-path:url(#XMLID_2_);fill:#FFFFFF;" d="M691.639,341.896c-6.355,0-12.588-1.136-18.688-3.411
			c-28.546-10.649-53.739-45.401-74.879-103.293c-15.698-42.988-23.154-83.396-23.228-83.798l1.968-0.359
			c0.073,0.402,7.505,40.665,23.148,83.497c14.389,39.396,38.854,89.084,73.69,102.079c20.202,7.538,42.034,2.053,64.893-16.298
			c48.738-39.123,75.045-84.106,94.253-116.952c15.19-25.975,26.166-44.742,40.345-45.631c10.337-0.651,21.8,7.987,37.146,27.995
			l-1.587,1.217c-14.695-19.16-25.938-27.787-35.434-27.216c-13.115,0.821-23.865,19.203-38.743,44.645
			c-19.287,32.98-45.702,78.148-94.728,117.503C723.19,335.202,707.062,341.896,691.639,341.896z"/>
		<path style="clip-path:url(#XMLID_2_);fill:#FFFFFF;" d="M1092.385,742.244c-22.547,0-90.188-33.68-161.913-80.708
			c-87.44-57.331-161.637-121.426-203.565-175.85c-19.665-25.524-24.895-47.94-15.545-66.626
			c14.002-27.98,59.635-47.319,135.633-57.48c56.423-7.544,109.454-6.918,109.98-6.913l-0.027,2
			c-0.528-0.009-53.43-0.629-109.71,6.898c-74.229,9.927-120.595,29.427-134.088,56.391c-8.977,17.94-3.816,39.645,15.34,64.51
			c97.018,125.93,324.006,257.398,364.65,255.764c2.609-0.104,4.321-0.756,5.088-1.936l1.678,1.09
			c-1.142,1.755-3.391,2.712-6.686,2.844C1092.95,742.238,1092.672,742.244,1092.385,742.244z"/>
	</g>
	<path style="fill:#EAEAFF;" d="M711.784,649.407c0,0,222.568-91.453,233.432-65.425c11.66,27.937-28.8,60.734-81.095,79.374
		c0,0,91.478-29.903,62.147,26.363c-14.147,27.14-54.502,39.68-70.484,42.298H583.7l82.611-72L711.784,649.407z"/>
	<g id="&#x6811;&#x53F6;_1_">
		<path style="fill:#95AE3A;" d="M285.845,453.145c0,0,74.109-29.868-2.706-173.923
			C283.139,279.222,184.235,336.719,285.845,453.145z"/>
		<path style="fill:#232323;" d="M278.422,417.29c-0.209,0-0.404-0.133-0.474-0.342c-14.653-43.939-0.668-106.143-0.525-106.766
			c0.062-0.271,0.328-0.439,0.599-0.376c0.269,0.062,0.438,0.33,0.375,0.599c-0.142,0.621-14.064,62.556,0.499,106.227
			c0.087,0.262-0.054,0.545-0.316,0.633C278.528,417.282,278.474,417.29,278.422,417.29z"/>
		<path style="fill:#232323;" d="M278.221,346.16c-1.751,0-3.598-0.164-5.539-0.537c-0.271-0.053-0.449-0.314-0.397-0.586
			c0.053-0.271,0.315-0.445,0.585-0.396c15.812,3.046,25.24-8.228,25.333-8.342c0.175-0.214,0.49-0.246,0.704-0.07
			c0.214,0.175,0.246,0.489,0.071,0.703C298.892,337.036,291.26,346.16,278.221,346.16z"/>
		<path style="fill:#232323;" d="M271.887,359.875c-0.066,0-0.133-0.013-0.197-0.04c-0.207-0.089-20.634-9.049-17.219-24.888
			c0.059-0.27,0.324-0.439,0.594-0.383c0.27,0.058,0.441,0.324,0.383,0.594c-3.244,15.042,16.437,23.672,16.636,23.757
			c0.253,0.109,0.371,0.403,0.262,0.657C272.265,359.762,272.081,359.875,271.887,359.875z"/>
		<path style="fill:#232323;" d="M271.923,378.374c-0.275,0-0.499-0.223-0.5-0.499c0-0.275,0.223-0.5,0.499-0.501
			c0.204-0.001,20.501-0.217,35.142-14.07c0.201-0.189,0.517-0.18,0.707,0.02c0.19,0.2,0.181,0.518-0.02,0.707
			C292.815,378.163,272.131,378.374,271.923,378.374C271.924,378.374,271.923,378.374,271.923,378.374z"/>
		<path style="fill:#ADCD55;" d="M306.868,472.761c-2.08-31.564-19.601-124.875-152.977-143.892c0,0-10.694,168.693,142.955,155.469
			C302.788,483.827,307.26,478.712,306.868,472.761z"/>
		<path style="fill:#607035;" d="M295.6,471.889c-0.13,0-0.26-0.051-0.358-0.151c-1.123-1.152-112.491-115.438-131.432-132.439
			c-0.206-0.185-0.223-0.501-0.038-0.706c0.185-0.206,0.501-0.223,0.706-0.038c18.965,17.024,130.357,131.333,131.479,132.486
			c0.193,0.197,0.189,0.514-0.009,0.707C295.852,471.842,295.726,471.889,295.6,471.889z"/>
		<path style="fill:#607035;" d="M217.212,391.982c-0.023,0-0.047-0.002-0.071-0.005c-0.273-0.039-0.464-0.292-0.425-0.565
			c1.555-10.912-10.465-40.395-10.587-40.691c-0.105-0.255,0.017-0.547,0.272-0.652c0.256-0.104,0.547,0.019,0.652,0.273
			c0.501,1.221,12.245,30.031,10.652,41.211C217.671,391.802,217.457,391.982,217.212,391.982z"/>
		<path style="fill:#607035;" d="M210.583,403.453c-8.696,0-21.286-2.425-38.093-11.403c-0.243-0.131-0.335-0.434-0.205-0.677
			c0.129-0.244,0.433-0.336,0.677-0.206c35.173,18.793,51.934,8.233,52.099,8.125c0.232-0.151,0.542-0.088,0.692,0.142
			c0.152,0.229,0.09,0.539-0.14,0.692C225.246,400.369,220.39,403.453,210.583,403.453z"/>
		<path style="fill:#607035;" d="M247.581,422.813c-0.076,0-0.153-0.018-0.225-0.054c-0.247-0.125-0.345-0.426-0.221-0.672
			c0.095-0.187,9.356-18.924,1.717-38.709c-0.1-0.257,0.029-0.547,0.286-0.646c0.256-0.097,0.547,0.028,0.646,0.287
			c7.803,20.21-1.661,39.329-1.757,39.52C247.939,422.712,247.763,422.813,247.581,422.813z"/>
		<path style="fill:#607035;" d="M237.896,441.953c-11.5,0-25.836-2.297-40.495-10.455c-0.241-0.134-0.328-0.438-0.194-0.68
			c0.134-0.24,0.437-0.329,0.68-0.193c32.979,18.354,64.265,6.697,64.577,6.577c0.257-0.099,0.547,0.03,0.646,0.287
			c0.099,0.258-0.03,0.548-0.288,0.646C262.645,438.204,252.586,441.953,237.896,441.953z"/>
	</g>
	<g>
		<path style="fill:#5A6C1C;" d="M680.028,450.299c-0.2,0-0.404-0.04-0.599-0.125c-0.759-0.332-1.106-1.216-0.775-1.975
			c0.104-0.237,10.63-23.981,36.394-48.684c23.754-22.776,65.721-51.113,130.754-56.77c0.827-0.076,1.553,0.539,1.624,1.364
			c0.072,0.825-0.539,1.553-1.364,1.624c-64.095,5.574-105.439,33.447-128.836,55.849c-25.375,24.295-35.721,47.583-35.822,47.815
			C681.157,449.963,680.606,450.299,680.028,450.299z"/>
		<path style="fill:#ADCD55;" d="M732.626,355.667c0,0-16.471,15.111-6.341,35.815C726.285,391.482,747.026,373.043,732.626,355.667
			z"/>
		<path style="fill:#ADCD55;" d="M760.668,408.994c0,0-29.533,20.245-42.998-7.797C717.67,401.197,740.584,384.959,760.668,408.994z
			"/>
		<path style="fill:#ADCD55;" d="M756.5,345.826c0,0-11.389,11.211-3.042,26.659C753.458,372.485,769.763,366.245,756.5,345.826z"/>
		<path style="fill:#ADCD55;" d="M799.321,391.482c0,0-33.552,20.371-50.502-16.22C748.819,375.262,786.058,362.441,799.321,391.482
			z"/>
		<path style="fill:#ADCD55;" d="M784.921,332.917c0,0-10.685,7.554-3.912,26.238C781.008,359.155,797.426,348.385,784.921,332.917z
			"/>
		<path style="fill:#ADCD55;" d="M823.573,367.47c0,0-20.842,9.344-36.758-9.349C786.815,358.121,805.005,345.491,823.573,367.47z"
			/>
		<path style="fill:#ADCD55;" d="M816.752,327.167c0,0-11.336,13.174-6.51,22.801C810.242,349.968,822.437,344.843,816.752,327.167z
			"/>
		<path style="fill:#ADCD55;" d="M834.942,344.241c0,0,7.958-14.584,34.105-14.246c0,0,17.537,1.819,22.032,11.689
			c0,0-1.335-1.019-3.583-1.892c-3.284-1.276-6.984-0.624-9.753,1.556C871.692,346.113,856.838,354.392,834.942,344.241z"/>
	</g>
	<path id="XMLID_102_" style="fill:#FFFFFF;" d="M695.619,605.813H257.625c-7.295,0-13.263-5.968-13.263-13.263V350.856
		c0-7.295,5.968-13.263,13.263-13.263h437.995c7.295,0,13.263,5.968,13.263,13.263v241.693
		C708.883,599.844,702.914,605.813,695.619,605.813z"/>
	<path id="XMLID_10_" style="fill:none;stroke:#232323;stroke-width:2;stroke-miterlimit:10;" d="M705.61,619.187H267.615
		c-7.295,0-13.263-5.968-13.263-13.263V364.23c0-7.295,5.968-13.263,13.263-13.263H705.61c7.295,0,13.263,5.968,13.263,13.263
		v241.693C718.873,613.218,712.904,619.187,705.61,619.187z"/>
	<rect x="439.814" y="438.342" style="fill:#F1F1F1;" width="245.444" height="39.023"/>
	<rect x="439.814" y="498.06" style="fill:#F1F1F1;" width="245.444" height="39.023"/>
	<path style="fill:#FFD840;" d="M671.615,512.228c0,0,39.411,6.063,105.347-78.063l184.926,47.747
		c0,0-47.747,136.278-250.105,181.444L671.615,512.228z"/>
	<path style="fill:#FF6666;" d="M519.279,583.982c0,0,90.189-11.122,142.484-106.617l178.863,65.486
		c0,0,13.642,68.662-216.758,174.009L519.279,583.982z"/>
	<path style="fill:#5A78EC;" d="M293.426,732.018c0,0,112.168-35.621,216.758-178.105l190.232,80.05
		c0,0-37.895,85.929-104.589,98.055H293.426z"/>
	<path style="fill:#26205C;" d="M931.952,738.839H57.721c-3.752,0-6.821-3.069-6.821-6.821l0,0c0-3.752,3.069-6.821,6.821-6.821
		h874.232c3.752,0,6.821,3.069,6.821,6.821l0,0C938.773,735.769,935.704,738.839,931.952,738.839z"/>
	<circle style="fill:#5A78EC;" cx="309.1" cy="387.024" r="12.593"/>
	<circle style="fill:#5A78EC;" cx="350.906" cy="387.024" r="12.593"/>
	<circle style="fill:#5A78EC;" cx="309.1" cy="436.852" r="12.593"/>
	<circle style="fill:#5A78EC;" cx="350.906" cy="436.852" r="12.593"/>
	<circle style="fill:#5A78EC;" cx="392.712" cy="387.024" r="12.593"/>
	<circle style="fill:#5A78EC;" cx="392.712" cy="436.852" r="12.593"/>
	<path style="fill:#FF6666;" d="M385.858,465.881l-33.387,33.387c-3.342,3.342-0.975,9.055,3.751,9.055h8.883
		c2.929,0,5.304,2.375,5.304,5.304v63.626c0,2.93,2.375,5.304,5.304,5.304h13.896h13.896c2.929,0,5.304-2.375,5.304-5.304v-63.626
		c0-2.93,2.375-5.304,5.304-5.304h8.883c4.726,0,7.092-5.713,3.751-9.055l-33.387-33.387
		C391.288,463.809,387.929,463.809,385.858,465.881z"/>
	<g>
		<circle style="fill:#FFB7B7;" cx="105.073" cy="511.849" r="19.325"/>
		<path style="fill:#FFB7B7;" d="M37.024,602.841L37.024,602.841c-2.014-2.973-6.095-3.758-9.069-1.743l-4.153,2.814l-5.473-1.125
			c-0.822-0.169-1.633,0.365-1.802,1.187c-0.169,0.822,0.365,1.633,1.187,1.802l2.56,0.526l-5.154,3.492
			c-2.973,2.014-3.758,6.095-1.743,9.068v0c2.014,2.973,6.095,3.758,9.068,1.743l12.835-8.696
			C38.254,609.895,39.039,605.814,37.024,602.841z"/>
		<g>
			<defs>
				<path id="XMLID_99_" d="M162.584,505.357c0,0,35.178-14.397,135.53,25.966s91.834,4.073,98.129-7.036
					c6.295-11.109-9.628-42.955-38.881-46.287c-29.254-3.333-18.515-18.885-9.257-29.254c9.257-10.368-16.796-31.925-57.278-4.298
					c0,0-111.125,43.234-129.724,58.64L162.584,505.357z"/>
			</defs>
			<use xlink:href="#XMLID_99_"  style="overflow:visible;fill:#4ED0D7;"/>
			<clipPath id="XMLID_3_">
				<use xlink:href="#XMLID_99_"  style="overflow:visible;"/>
			</clipPath>
			<path style="clip-path:url(#XMLID_3_);fill:#FFFFFF;" d="M304.268,520.044c-16.523,0.001-36.153-7.463-43.207-16.506
				c-10.813-13.863-33.014-14.762-43.547-9.291c-10.815,5.619-15.862,7.176-22.313-0.166c-4.488-5.104-28.18,9.435-36.93,15.469
				l-0.832-1.207c3.33-2.296,32.713-22.23,38.863-15.23c5.547,6.312,9.361,5.638,20.537-0.166c10.974-5.7,34.108-4.759,45.379,9.69
				c6.922,8.875,26.559,16.159,42.813,15.937c7.756-0.112,18.251-1.949,24.207-10.061c10.84-14.762,22.186-22.247,33.722-22.247
				c0.045,0,0.089,0,0.135,0c11.843,0.06,23.655,8.168,35.108,24.099l-1.19,0.855c-11.163-15.529-22.577-23.432-33.925-23.489
				c-0.042,0-0.085,0-0.127,0c-11.045,0-21.992,7.282-32.541,21.648c-6.313,8.597-17.28,10.542-25.368,10.659
				C304.792,520.043,304.529,520.044,304.268,520.044z"/>
		</g>
		<g>
			<defs>
				<path id="XMLID_98_" d="M160.388,501.144c0,0,1.419,1.666,6.205-6.11c0,0,20.616-52.212,54.221-69.987
					c0,0,6.388-3.055,14.997-19.718c8.609-16.664,43.325-53.601,56.934-14.164s7.776,47.491-4.166,54.712
					c0,0-113.357,46.658-124.166,57.211L160.388,501.144z"/>
			</defs>
			<use xlink:href="#XMLID_98_"  style="overflow:visible;fill:#11B7CA;"/>
			<clipPath id="XMLID_4_">
				<use xlink:href="#XMLID_98_"  style="overflow:visible;"/>
			</clipPath>
			<path style="clip-path:url(#XMLID_4_);fill:#FFFFFF;" d="M147.2,516.859l-0.523-0.514c0.45-0.458,45.383-45.944,77.085-55.545
				c15.882-4.81,25.158-8.736,28.686-15.695c3.533-6.969,1.116-17.259-3.93-31.601c-2.414-6.863-2.116-17.913,3.992-27.127
				c3.676-5.545,10.841-12.326,24.104-13.145l0.045,0.731c-12.961,0.801-19.954,7.413-23.538,12.819
				c-5.969,9.005-6.266,19.788-3.912,26.479c5.11,14.525,7.544,24.974,3.893,32.176c-3.647,7.194-13.051,11.196-29.127,16.065
				C192.452,471.048,147.649,516.402,147.2,516.859z"/>
		</g>
		<path style="fill:#11B7CA;" d="M143.407,515.698c0.417,2.96,2.461,4.851,8.972,0.577l15.501-14.156l-3.173-3.662l-16.291,8.145
			C145.019,508.301,142.877,511.939,143.407,515.698z"/>
		<path style="fill:#FFB7B7;" d="M178.017,519.668L178.017,519.668c-3.021,2.181-7.276,1.493-9.457-1.527l-8.027-11.119
			c-2.181-3.021-1.493-7.276,1.527-9.457h0c3.021-2.181,7.276-1.493,9.457,1.527l8.027,11.119
			C181.725,513.232,181.038,517.487,178.017,519.668z"/>
		<g>
			<defs>
				<path id="SVGID_65_" d="M196.124,531.446l-14.423-21.767c-0.723-1.091-2.206-1.392-3.297-0.669l-12.198,8.082
					c-1.098,0.728-1.401,2.221-0.674,3.32l6.216,9.382l-36.358,4.8c-0.477,0.054-0.936,0.154-1.387,0.274
					c-0.275,0.052-0.549,0.115-0.822,0.191l-2.112,0.591l-4.24-1.629c-1.558-0.598-3.289-0.555-4.815,0.12l-16.063,7.105
					c-1.923,0.851-3.295,2.603-3.661,4.673l-0.514,2.912l-0.908,0.519c-0.749,0.428-1.428,0.939-2.031,1.516
					c-0.183,0.105-0.367,0.205-0.545,0.323l-70.992,47.067c-1.13,0.749-1.442,2.286-0.693,3.417l8.163,12.319
					c0.768,1.16,2.346,1.48,3.505,0.711l61.962-41.084l11.426,33.919l60.782-23.556l-20.123-31.785l21.172-2.411
					c1.683-0.192,16.737-3.011,18.031-3.934c0.644-0.247,1.271-0.562,1.869-0.958C197.844,541.947,199.072,535.895,196.124,531.446z
					"/>
			</defs>
			<use xlink:href="#SVGID_65_"  style="overflow:visible;fill:#A9D4CA;"/>
			<clipPath id="SVGID_1_">
				<use xlink:href="#SVGID_65_"  style="overflow:visible;"/>
			</clipPath>
			<polygon style="clip-path:url(#SVGID_1_);fill:#94BEB3;" points="30.748,615.569 101.778,569.519 114.593,611.444 
				107.087,614.007 			"/>
			<path style="clip-path:url(#SVGID_1_);fill:#94BEB3;" d="M162.316,555.91c0,0-17.576-16.233-23.556-16.965
				c0,0,17.209,15.623,21.603,22.458L162.316,555.91z"/>
		</g>
		<polygon style="fill:#FFB7B7;" points="146.737,659.216 134.04,671.677 143.337,687.971 168.601,660.326 149.012,656.664 		"/>
		<polygon style="fill:#FFB7B7;" points="249.294,676.904 254.42,689.72 275.336,689.72 264.672,663.357 		"/>
		<g>
			<defs>
				<path id="SVGID_67_" d="M278.998,661.543c0,0-3.539-34.721-66.987-51.808l-39.564-25.753l-27.477,10.649l27.477,47.936
					c0,0,31.837,4.013,46.502,11.717c20.386,10.71,27.096,29.659,27.096,29.659L278.998,661.543z"/>
			</defs>
			<use xlink:href="#SVGID_67_"  style="overflow:visible;fill:#7E9A84;"/>
			<clipPath id="SVGID_2_">
				<use xlink:href="#SVGID_67_"  style="overflow:visible;"/>
			</clipPath>
			<path style="clip-path:url(#SVGID_2_);fill:#65816C;" d="M195.636,639.028c0,0,45.892-4.15,64.444,41.01l-17.576,17.072
				l-53.703-45.876L195.636,639.028z"/>
		</g>
		<g>
			<defs>
				<path id="SVGID_69_" d="M138.394,657.58l44.305,13.548c0,0,55.258-49.797,35.151-72.499c0,0-12.449-10.252-72.881-3.997
					l-33.305,12.907c0,0-4.341,19.65,9.52,29.903c0,0,12.075,8.005,25.257,5.076C160.749,639.337,150.327,649.036,138.394,657.58z"
					/>
			</defs>
			<use xlink:href="#SVGID_69_"  style="overflow:visible;fill:#8EA594;"/>
			<clipPath id="SVGID_3_">
				<use xlink:href="#SVGID_69_"  style="overflow:visible;"/>
			</clipPath>
			<path style="clip-path:url(#SVGID_3_);fill:#65816C;" d="M164.391,624.137c0,0-1.569,16.473-14.455,24.103
				c-5.535,3.278-39.38-14.371-33.024-11.776C146.202,648.424,164.391,624.137,164.391,624.137z"/>
		</g>
		<g>
			<defs>
				<path id="XMLID_91_" d="M135.83,669.022l-16.978,18.057l13.499,38.118h34.285c1.877-0.151,1.956-14.971-7.637-14.269
					c-10.03,0.734-13.116-4.832-14.031-11.606c0,0-1.8-10.828,6.973-18.934L135.83,669.022z"/>
			</defs>
			<use xlink:href="#XMLID_91_"  style="overflow:visible;fill:#26205C;"/>
			<clipPath id="XMLID_5_">
				<use xlink:href="#XMLID_91_"  style="overflow:visible;"/>
			</clipPath>
			<polygon style="clip-path:url(#XMLID_5_);fill:#FFFFFF;" points="110.054,659.644 133.644,722.989 174.043,722.989 
				173.921,721.037 135.108,721.037 112.162,658.546 			"/>
		</g>
		<g>
			<defs>
				<path id="XMLID_90_" d="M251.536,689.72h27.462c0,0-1.831,17.291,16.111,19.122c0,0,21.969,1.831,19.406,16.355h-62.979V689.72z
					"/>
			</defs>
			<use xlink:href="#XMLID_90_"  style="overflow:visible;fill:#26205C;"/>
			<clipPath id="XMLID_6_">
				<use xlink:href="#XMLID_90_"  style="overflow:visible;"/>
			</clipPath>
			<rect x="233.96" y="720.205" style="clip-path:url(#XMLID_6_);fill:#FFFFFF;" width="97.764" height="1.932"/>
		</g>
		<path style="fill:#26205C;" d="M122.482,503.451c0,0-4.432-8.621-15.7-4.539c0,0-8.666,5.248-6.225,10.252
			c0,0-12.449-1.587-7.445,6.957l-3.501,7.321c0,0-12.04-5.368-3.863-22.578S124.269,491.024,122.482,503.451z"/>
		<circle style="fill:#26205C;" cx="75.644" cy="500.865" r="7.75"/>
		<circle style="fill:#26205C;" cx="58.361" cy="498.123" r="15.222"/>
		<path style="fill:#FFFFFF;" d="M158.899,656.017c-0.359,0-0.707-0.194-0.886-0.534c-0.257-0.488-0.07-1.093,0.419-1.351
			c17.204-9.061,42.756-38.016,41.833-43.246c-1.984-3.143-40.082-0.95-75.757,3.017c-0.495,0.046-0.966-0.271-1.083-0.763
			c-0.117-0.49,0.15-0.992,0.623-1.168c9.213-3.44,11.913-10.678,11.938-10.751c0.187-0.518,0.759-0.79,1.278-0.604
			c0.52,0.186,0.791,0.755,0.606,1.274c-0.095,0.27-2.005,5.47-8.115,9.443c7.022-0.722,19.829-1.969,32.586-2.856
			c39.048-2.718,39.619,0.51,39.892,2.06c1.272,7.209-26.774,36.886-42.871,45.363C159.216,655.98,159.056,656.017,158.899,656.017z
			"/>
		<path style="fill:#26205C;" d="M105.074,549.465c-0.374,0-0.733-0.211-0.904-0.571c-0.237-0.499-0.024-1.096,0.475-1.332
			l23.678-11.229c0.5-0.235,1.095-0.024,1.332,0.475s0.024,1.096-0.475,1.332l-23.678,11.229
			C105.364,549.434,105.218,549.465,105.074,549.465z"/>
		<path style="fill:#017380;" d="M386.853,436.6H324.31c-2.77,0-11.294,14.62-11.294,11.85v-40.401c0-2.77,2.267-5.037,5.037-5.037
			h68.8c2.77,0,5.037,2.267,5.037,5.037v23.514C391.89,434.333,389.623,436.6,386.853,436.6z"/>
		<path style="fill:#FFFFFF;" d="M339.509,429.133c-0.056,0-0.11-0.004-0.166-0.012c-1.118-0.157-1.573-1.786-2.4-4.743
			c-0.622-2.221-1.472-5.263-2.911-8.692c-0.636-1.517-1.622-3.308-2.936-3.246c-2.871,0.148-6.022,8.507-6.995,11.715
			c-0.08,0.266-0.358,0.415-0.624,0.334c-0.264-0.08-0.414-0.359-0.333-0.623c0.378-1.25,3.815-12.214,7.9-12.424
			c1.488-0.118,2.804,1.221,3.909,3.857c1.462,3.487,2.323,6.563,2.952,8.81c0.544,1.945,1.106,3.956,1.577,4.022
			c0.74,0.056,2.79-3.274,3.472-4.383c4.385-7.126,9.951-11.623,13.545-10.982c1.187,0.219,2.722,1.109,3.295,4.114
			c0.591,3.104,1.642,4.918,3.037,5.244c1.395,0.319,2.906-0.892,3.849-2.141c1.316-1.742,3.385-4.087,6.15-4.33
			c1.867-0.163,3.781,0.655,5.698,2.436c0.202,0.188,0.214,0.504,0.026,0.706s-0.505,0.215-0.707,0.026
			c-1.701-1.578-3.358-2.313-4.93-2.172c-2.368,0.209-4.239,2.347-5.44,3.938c-1.468,1.941-3.293,2.877-4.875,2.511
			c-1.836-0.429-3.111-2.458-3.792-6.03c-0.375-1.967-1.213-3.083-2.493-3.317c-3.089-0.564-8.471,3.955-12.513,10.521
			C341.584,427.884,340.493,429.132,339.509,429.133z"/>
	</g>
	<g>
		<path style="fill:#5A78EC;" d="M588.877,542.043H476.204c-3.891,0-7.074-3.183-7.074-7.074v-65.585
			c0-3.891,3.183-7.074,7.074-7.074h112.674c3.891,0,7.074,3.183,7.074,7.074v65.585
			C595.951,538.86,592.768,542.043,588.877,542.043z"/>
		<rect x="483.277" y="474.816" style="fill:#FFFFFF;" width="51.537" height="6.821"/>
		<rect x="483.277" y="492.626" style="fill:#FFD840;" width="68.211" height="6.821"/>
		<rect x="483.277" y="509.679" style="fill:#FFFFFF;" width="25.768" height="18.947"/>
		<rect x="517.383" y="509.679" style="fill:#FF6666;" width="24.632" height="18.947"/>
		<polygon style="fill:#5A78EC;" points="483.539,465.412 483.016,464.559 532.544,434.201 532.806,434.365 580.932,464.562 
			580.401,465.409 532.538,435.377 		"/>
	</g>
	<polygon style="fill:#5A78EC;" points="561.342,417.29 502.345,417.29 491.356,401.696 431.742,401.696 431.742,400.696 
		491.875,400.696 502.864,416.29 561.342,416.29 	"/>
	<rect x="431.742" y="382.698" style="fill:#5A78EC;" width="32.968" height="1"/>
	<rect x="431.742" y="390.982" style="fill:#5A78EC;" width="32.968" height="1"/>
	<g id="&#x6D88;&#x606F;&#x677F;_1_">
		<path style="opacity:0.64;fill:#5A78EB;" d="M545.763,363.235h-97.101c0,0-8.905,0-16.21,5.844
			c-6.064,4.851-8.767,14.611-8.767,14.611v-94.317c0-3.976,3.253-7.229,7.229-7.229h114.85c3.976,0,7.229,3.253,7.229,7.229v66.633
			C552.991,359.982,549.739,363.235,545.763,363.235z"/>
		<path style="fill:#FFFFFF;" d="M543.072,360.313h-97.101c0,0-8.905,0-16.21,5.844c-6.064,4.851-8.767,14.611-8.767,14.611v-94.317
			c0-3.976,3.253-7.229,7.229-7.229h114.85c3.976,0,7.229,3.253,7.229,7.229v66.633C550.301,357.06,547.048,360.313,543.072,360.313
			z"/>
		<circle style="fill:#5A78EB;" cx="443.276" cy="302.965" r="11.323"/>
		<polygon style="fill:#FDD740;stroke:#232323;stroke-width:0.5;stroke-miterlimit:10;" points="519.195,302.965 520.965,306.552 
			524.924,307.128 522.06,309.92 522.736,313.863 519.195,312.002 515.654,313.863 516.33,309.92 513.465,307.128 517.424,306.552 
					"/>
		<polygon style="fill:#FDD740;stroke:#232323;stroke-width:0.5;stroke-miterlimit:10;" points="502.903,302.965 504.674,306.552 
			508.633,307.128 505.768,309.92 506.445,313.863 502.903,312.002 499.362,313.863 500.039,309.92 497.174,307.128 
			501.133,306.552 		"/>
		<polygon style="fill:#FDD740;stroke:#232323;stroke-width:0.5;stroke-miterlimit:10;" points="486.612,302.965 488.383,306.552 
			492.342,307.128 489.477,309.92 490.153,313.863 486.612,312.002 483.071,313.863 483.747,309.92 480.882,307.128 
			484.842,306.552 		"/>
		<polygon style="fill:#FDD740;stroke:#232323;stroke-width:0.5;stroke-miterlimit:10;" points="470.321,302.965 472.092,306.552 
			476.051,307.128 473.186,309.92 473.862,313.863 470.321,312.002 466.78,313.863 467.456,309.92 464.591,307.128 468.55,306.552 
					"/>
		<polygon style="fill:#FDD740;stroke:#232323;stroke-width:0.5;stroke-miterlimit:10;" points="535.486,302.965 537.257,306.552 
			541.216,307.128 538.351,309.92 539.027,313.863 535.486,312.002 531.945,313.863 532.621,309.92 529.756,307.128 
			533.715,306.552 		"/>
		<g>
			<path d="M437.522,326.631l2.333-3.941h1.662l-1.85,3.941h2.439v4.343h-4.584V326.631z M443.151,326.631l2.332-3.941h1.662
				l-1.85,3.941h2.44v4.343h-4.584V326.631z"/>
		</g>
		<g>
			<path d="M535.401,346.027l-2.333,3.941h-1.662l1.85-3.941h-2.439v-4.343h4.584V346.027z M529.771,346.027l-2.332,3.941h-1.662
				l1.85-3.941h-2.44v-4.343h4.584V346.027z"/>
		</g>
		<path style="fill:#B7BFDC;stroke:#232323;stroke-width:0.5;stroke-miterlimit:10;" d="M495.783,332.917h-41.458
			c-0.854,0-1.553-0.699-1.553-1.553v-2.739c0-0.854,0.699-1.553,1.553-1.553h41.458c0.854,0,1.553,0.699,1.553,1.553v2.739
			C497.336,332.219,496.637,332.917,495.783,332.917z"/>
		<path style="fill:#B7BFDC;stroke:#232323;stroke-width:0.5;stroke-miterlimit:10;" d="M516.969,344.241h-62.644
			c-0.854,0-1.553-0.699-1.553-1.553v-2.739c0-0.854,0.699-1.553,1.553-1.553h62.644c0.854,0,1.553,0.699,1.553,1.553v2.739
			C518.522,343.542,517.823,344.241,516.969,344.241z"/>
		<g>
			<line style="fill:#B7BFDC;" x1="464.827" y1="293.102" x2="499.162" y2="293.102"/>
			<path style="fill:#232323;" d="M499.162,293.353h-34.336c-0.138,0-0.25-0.112-0.25-0.25s0.112-0.25,0.25-0.25h34.336
				c0.138,0,0.25,0.112,0.25,0.25S499.301,293.353,499.162,293.353z"/>
		</g>
		<g>
			<line style="fill:#B7BFDC;" x1="464.827" y1="295.659" x2="475.054" y2="295.659"/>
			<path style="fill:#232323;" d="M475.054,295.909h-10.228c-0.138,0-0.25-0.112-0.25-0.25s0.112-0.25,0.25-0.25h10.228
				c0.138,0,0.25,0.112,0.25,0.25S475.193,295.909,475.054,295.909z"/>
		</g>
		<g>
			<polyline style="fill:#B7BFDC;" points="477.246,295.659 480.899,295.659 482.36,295.659 494.779,295.659 			"/>
			<path style="fill:#232323;" d="M494.779,295.909h-17.533c-0.138,0-0.25-0.112-0.25-0.25s0.112-0.25,0.25-0.25h17.533
				c0.138,0,0.25,0.112,0.25,0.25S494.917,295.909,494.779,295.909z"/>
		</g>
		<g>
			<line style="fill:#B7BFDC;" x1="464.827" y1="298.216" x2="481.629" y2="298.216"/>
			<path style="fill:#232323;" d="M481.629,298.466h-16.803c-0.138,0-0.25-0.112-0.25-0.25s0.112-0.25,0.25-0.25h16.803
				c0.138,0,0.25,0.112,0.25,0.25S481.767,298.466,481.629,298.466z"/>
		</g>
		<g>
			<line style="fill:#B7BFDC;" x1="483.821" y1="298.216" x2="510.851" y2="298.216"/>
			<path style="fill:#232323;" d="M510.851,298.466h-27.03c-0.138,0-0.25-0.112-0.25-0.25s0.112-0.25,0.25-0.25h27.03
				c0.138,0,0.25,0.112,0.25,0.25S510.989,298.466,510.851,298.466z"/>
		</g>
	</g>
	<g>
		<g>
			<defs>
				<circle id="SVGID_71_" cx="671.615" cy="315.657" r="60"/>
			</defs>
			<use xlink:href="#SVGID_71_"  style="overflow:visible;fill:#5A78EC;"/>
			<clipPath id="SVGID_4_">
				<use xlink:href="#SVGID_71_"  style="overflow:visible;"/>
			</clipPath>
			<path style="clip-path:url(#SVGID_4_);fill:#262E49;" d="M600.615,296.657c0,0,28-24,22,1s4,76,36,31s49-68,43-34s-1,62,13,32
				s6-54,6-54l23,65l-29,35l-93,16L600.615,296.657z"/>
		</g>
		<g id="&#x661F;&#x7403;_1_">
			<circle style="fill:#FFFFFF;" cx="649.115" cy="276.157" r="7.5"/>
			<circle style="fill:none;stroke:#FFFFFF;stroke-miterlimit:10;" cx="714.615" cy="287.657" r="3.5"/>
			<circle style="fill:#FFFFFF;" cx="708.615" cy="310.657" r="5.5"/>
			<circle style="fill:#FFD840;" cx="665.115" cy="345.157" r="5"/>
			<path style="fill:#FFD840;stroke:#232323;stroke-miterlimit:10;" d="M618.626,343.823"/>
			<path style="fill:#FFD840;" d="M648.377,370.991c-14.785,5.691-26.845,6.009-32.209-0.396
				c-9.929-11.855,6.847-42.257,37.47-67.904c30.623-25.647,63.497-36.828,73.426-24.972c3.389,4.046,3.667,10.252,1.346,17.693
				c0,0,3.206,10.246,3.206,16.246c0,15-2.466,21.08-2.466,21.08c31.8-34.725,46.513-69.405,33.56-84.871
				c-16.312-19.477-70.319-1.109-120.629,41.026c-11.406,9.553-21.643,19.507-30.465,29.417
				c-30.087,33.799-43.707,67.079-31.093,82.14c14.144,16.889,56.632,5.322,100.474-25.521c0,0-3.464,1.594-18.381-0.27
				C654.615,373.657,648.377,370.991,648.377,370.991z"/>
			<path style="fill:#232323;" d="M647.171,295.065c-0.143,0-0.284-0.061-0.383-0.179c-0.178-0.211-0.15-0.526,0.061-0.704
				c18.456-15.507,38.364-27.054,56.058-32.514c17.835-5.503,31.33-4.164,37.998,3.771c4.337,5.161,5.447,12.874,3.21,22.306
				c-0.063,0.27-0.333,0.437-0.602,0.371c-0.269-0.063-0.435-0.333-0.371-0.602c2.161-9.111,1.122-16.522-3.003-21.433
				c-6.392-7.607-19.509-8.835-36.937-3.458c-17.569,5.421-37.354,16.9-55.709,32.323
				C647.398,295.026,647.284,295.065,647.171,295.065z"/>
			<path style="fill:#232323;" d="M618.435,324.655c-0.107,0-0.214-0.034-0.306-0.104c-0.218-0.169-0.258-0.483-0.089-0.701
				c2.874-3.714,6.032-7.455,9.389-11.12c0.186-0.203,0.503-0.218,0.707-0.031s0.217,0.503,0.031,0.707
				c-3.338,3.645-6.479,7.364-9.335,11.056C618.733,324.589,618.585,324.655,618.435,324.655z"/>
			<path style="fill:#232323;" d="M621.017,388.953c-8.29,0-14.733-2.368-18.689-7.077c-7.016-8.35-5.575-22.695,4.057-40.396
				c0.132-0.241,0.435-0.331,0.678-0.2c0.243,0.132,0.333,0.436,0.2,0.679c-9.285,17.063-10.804,31.377-4.169,39.274
				c7.027,8.361,22.437,8.961,42.278,1.646c0.259-0.097,0.546,0.036,0.642,0.296c0.095,0.259-0.037,0.547-0.296,0.642
				C636.417,387.247,628.052,388.953,621.017,388.953z"/>
		</g>
	</g>
	<path style="fill:#ADCD55;" d="M816.752,348.51c0,0,10.99,12.941,29.179,10.645C845.931,359.155,837.679,343.089,816.752,348.51z"
		/>
	<path style="fill:#FFFFFF;" d="M632.649,654.728l-122.297-55.981c-1.233-0.565-1.781-2.036-1.216-3.269l4.978-6.749
		c0.565-1.233,2.036-1.781,3.269-1.216l120.885,55.452c1.233,0.565,1.781,2.036,1.216,3.269l-3.566,7.278
		C635.354,654.745,633.883,655.292,632.649,654.728z"/>
	<path style="fill:#FFFFFF;" d="M579.572,671.434l-89.978-47.669c-1.198-0.637-1.657-2.138-1.02-3.335l4.411-5.318
		c0.637-1.198,2.138-1.657,3.335-1.02l91.095,45.93c1.198,0.637,1.657,2.138,1.02,3.335l-5.529,7.057
		C582.271,671.611,580.77,672.07,579.572,671.434z"/>
	<path style="fill:#FFFFFF;" d="M757.11,557.833l-93.033-41.39c-1.239-0.553-1.8-2.019-1.247-3.258l4.037-5.607
		c0.553-1.239,2.019-1.8,3.258-1.247l94.029,39.579c1.239,0.553,1.8,2.019,1.247,3.258l-5.032,7.419
		C759.815,557.825,758.349,558.386,757.11,557.833z"/>
	<path style="fill:#FFFFFF;" d="M853.81,489.006l-74.087-25.831c-0.986-0.346-1.426-1.676-0.977-2.956l3.256-6.028
		c0.449-1.28,1.623-2.045,2.609-1.699l74.893,23.93c0.986,0.346,1.426,1.676,0.977,2.956l-4.062,7.929
		C855.971,488.587,854.796,489.351,853.81,489.006z"/>
	<path style="fill:#FFFFFF;" d="M857.393,522.623l-97.833-39.195c-1.269-0.535-1.876-1.995-1.349-3.245l4.706-4.764
		c0.527-1.25,1.996-1.835,3.265-1.3l97.014,36.594c1.269,0.535,1.876,1.995,1.349,3.245l-3.888,7.366
		C860.131,522.573,858.661,523.158,857.393,522.623z"/>
	<path style="fill:#FFFFFF;" d="M735.821,584.942l-92.894-41.701c-1.237-0.557-1.793-2.025-1.236-3.262l4.055-5.594
		c0.557-1.237,2.025-1.793,3.262-1.236l93.896,39.893c1.237,0.557,1.793,2.025,1.236,3.262l-5.057,7.402
		C738.526,584.943,737.058,585.5,735.821,584.942z"/>
	<path style="fill:#FFFFFF;" d="M555.995,697.693l-89.978-47.669c-1.198-0.637-1.657-2.138-1.02-3.335l4.411-5.318
		c0.637-1.198,2.138-1.657,3.335-1.02l91.095,45.93c1.198,0.637,1.657,2.138,1.02,3.335l-5.529,7.057
		C558.694,697.871,557.193,698.33,555.995,697.693z"/>
	<circle style="fill:#FFFFFF;" cx="444.301" cy="690.259" r="20.41"/>
	<line style="fill:none;stroke:#FFFFFF;stroke-miterlimit:10;" x1="626.699" y1="557.481" x2="711.647" y2="602.2"/>
	<line style="fill:none;stroke:#FFFFFF;stroke-miterlimit:10;" x1="610.999" y1="565.42" x2="653.608" y2="587.52"/>
	<line style="fill:none;stroke:#FFFFFF;stroke-miterlimit:10;" x1="659.137" y1="590.392" x2="671.094" y2="595.833"/>
	<line style="fill:none;stroke:#FFFFFF;stroke-miterlimit:10;" x1="598.914" y1="575.145" x2="663.125" y2="610.421"/>
	<path style="fill:none;stroke:#FFFFFF;stroke-width:2;stroke-miterlimit:10;" d="M901.093,529.428l-5.369-6.394
		c-0.478-0.569-1.206-0.867-1.946-0.796l-8.311,0.798c-1.864,0.179-3.123-1.857-2.132-3.445l4.422-7.082
		c0.394-0.631,0.452-1.415,0.156-2.096l-3.327-7.658c-0.746-1.717,0.801-3.544,2.617-3.092l8.102,2.017
		c0.721,0.18,1.485-0.007,2.042-0.5l6.255-5.531c1.403-1.24,3.618-0.334,3.75,1.534l0.585,8.329c0.052,0.742,0.466,1.41,1.106,1.788
		l7.193,4.24c1.613,0.951,1.436,3.338-0.3,4.04l-7.74,3.131c-0.689,0.279-1.197,0.879-1.358,1.605l-1.809,8.151
		C904.623,530.293,902.297,530.862,901.093,529.428z"/>
	<path style="fill:#232323;" d="M345.342,720.892c-0.425,0-0.819-0.272-0.954-0.699c-0.166-0.527,0.126-1.089,0.653-1.255
		c0.201-0.063,20.489-6.622,53.144-30.71c30.146-22.238,77.292-64.388,130.701-138.898l0.455-0.634l0.726,0.287l198.974,78.76
		l-0.429,0.955c-0.225,0.501-23.079,50.585-71.374,88.945c-0.433,0.341-1.062,0.271-1.405-0.161
		c-0.343-0.433-0.271-1.062,0.161-1.405c44.239-35.138,66.958-80.181,70.348-87.251l-196.286-77.696
		c-53.428,74.405-100.603,116.537-130.808,138.799c-32.888,24.24-53.403,30.854-53.606,30.918
		C345.542,720.877,345.441,720.892,345.342,720.892z"/>
	<path style="fill:#232323;" d="M722.991,677.538c-0.429,0-0.826-0.278-0.957-0.711c-0.16-0.528,0.139-1.086,0.667-1.246
		c59.492-17.99,93.56-54.728,111.663-82.378c17.656-26.967,23.983-50.771,25.119-55.482l-179.011-65.106
		c-45.737,78.701-79.906,87.089-81.342,87.408c-0.541,0.113-1.074-0.221-1.193-0.76c-0.12-0.538,0.219-1.072,0.757-1.192
		c0.35-0.079,35.062-8.744,80.468-87.183l0.419-0.726l0.788,0.287l181.443,65.99l-0.177,0.849
		c-0.055,0.263-5.735,26.645-25.551,56.938c-18.286,27.955-52.699,65.093-112.804,83.269
		C723.184,677.524,723.087,677.538,722.991,677.538z"/>
	<path style="fill:#232323;" d="M848.459,626.659c-0.352,0-0.692-0.186-0.875-0.515c-0.268-0.483-0.094-1.092,0.389-1.359
		c56.724-31.484,91.226-71.794,110.181-100.064c18.137-27.05,25.865-48.486,27.466-53.265l-189.249-47.97
		c-16.389,35.241-45.128,54.521-45.418,54.713c-0.46,0.304-1.081,0.179-1.385-0.282s-0.178-1.081,0.282-1.386
		c0.288-0.19,28.972-19.453,45.052-54.635l0.347-0.758l0.809,0.204l192.104,48.694l-0.303,1.001
		c-0.071,0.235-7.355,23.943-28.042,54.797c-19.077,28.453-53.798,69.021-110.871,100.698
		C848.789,626.619,848.623,626.659,848.459,626.659z"/>
</g>
</svg>
