<?xml version="1.0" standalone="no"?><!DOCTYPE svg PUBLIC "-//W3C//DTD SVG 1.1//EN" "http://www.w3.org/Graphics/SVG/1.1/DTD/svg11.dtd"><svg t="1536827817044" class="icon" style="" viewBox="0 0 1024 1024" version="1.1" xmlns="http://www.w3.org/2000/svg" p-id="5339" xmlns:xlink="http://www.w3.org/1999/xlink" width="64" height="64"><defs><style type="text/css"></style></defs><path d="M1.916684 717.924639l342.592922-2.264465 0.595596 72.017972-116.420267 0.954353 1.428432 140.702204 391.045471 1.434028 26.544003-283.078273-19.643682-2.501304c0 0-64.158301 64.638975-170.581945 19.400846-53.210323-22.613668-72.732487-67.608961-77.969537-107.132164-14.880911-114.156202 91.421216-158.202938 88.208395-174.035004-1.905108-9.521944-45.474568-49.875984-33.45132-106.776406 10.714136-50.712017 34.998671-75.58955 66.662603-92.375569 31.664332-16.783621 60.58972-13.808038 60.58972-13.808038-28.925389-207.960403 292.121142-180.819005 242.00532-1.665871 0 0 87.019801 2.024228 109.871307 84.756335 22.855304 82.731708-28.807469 132.012695-28.807469 132.012695s88.922511 48.924629 85.946528 151.774697c-2.856064 102.852066-86.540126 146.06257-129.750629 146.418328-43.210503 0.236839-75.94331-14.403235-76.778744-14.759993l-48.208115-23.092343-16.192022-0.474678 20.592039 283.665875 302.120362-0.830437 0.835434 71.424374-1020.760324-0.11792-0.592998-69.042989 128.678956 0.118919 0-144.038942-129.632709 0.593598L1.916684 717.924639 1.916684 717.924639z" p-id="5340" fill="#1296db"></path></svg>