<?xml version="1.0" standalone="no"?><!DOCTYPE svg PUBLIC "-//W3C//DTD SVG 1.1//EN" "http://www.w3.org/Graphics/SVG/1.1/DTD/svg11.dtd"><svg t="1536230191558" class="icon" style="" viewBox="0 0 1024 1024" version="1.1" xmlns="http://www.w3.org/2000/svg" p-id="2712" xmlns:xlink="http://www.w3.org/1999/xlink" width="32" height="32"><defs><style type="text/css"></style></defs><path d="M928 928H96c-52.928 0-96-43.072-96-96V192c0-52.928 43.072-96 96-96h832c52.928 0 96 43.072 96 96v640c0 52.928-43.072 96-96 96zM96 160c-17.632 0-32 14.368-32 32v640c0 17.664 14.368 32 32 32h832a32 32 0 0 0 32-32V192c0-17.632-14.336-32-32-32H96z" fill="#DDDDDE" p-id="2713"></path><path d="M64 896a31.968 31.968 0 0 1-22.624-54.624l256-256a31.968 31.968 0 1 1 45.248 45.248l-256 256A31.904 31.904 0 0 1 64 896z" fill="#DDDDDE" p-id="2714"></path><path d="M448 768a31.904 31.904 0 0 1-22.624-9.376l-128-128a31.968 31.968 0 1 1 45.248-45.248l128 128A31.968 31.968 0 0 1 448 768z" fill="#DDDDDE" p-id="2715"></path><path d="M448 768a31.968 31.968 0 0 1-22.624-54.624l320-320a31.968 31.968 0 0 1 45.248 0l224 224a31.968 31.968 0 1 1-45.248 45.248L768 461.248l-297.376 297.376A31.904 31.904 0 0 1 448 768z" fill="#DDDDDE" p-id="2716"></path><path d="M256 352m-64 0a64 64 0 1 0 128 0 64 64 0 1 0-128 0Z" fill="#DDDDDE" p-id="2717"></path></svg>