<?xml version="1.0" standalone="no"?><!DOCTYPE svg PUBLIC "-//W3C//DTD SVG 1.1//EN" "http://www.w3.org/Graphics/SVG/1.1/DTD/svg11.dtd"><svg t="1539858615287" class="icon" style="" viewBox="0 0 1024 1024" version="1.1" xmlns="http://www.w3.org/2000/svg" p-id="3608" xmlns:xlink="http://www.w3.org/1999/xlink" width="64" height="64"><defs><style type="text/css"></style></defs><path d="M785.82 160.726V839.998q0 13.818-9.455 23.273-10.182 9.455-23.273 9.455H319.637q-13.091 0-22.545-9.455-10.182-9.455-10.182-23.273V160.725q0-13.818 10.182-23.273 9.455-9.455 22.545-9.455h433.455q13.091 0 23.273 9.455 9.455 9.455 9.455 23.273z m-466.181 0v530.909h433.455V329.453 160.726H319.639z m433.454 679.272v-32-84.364H319.638v116.364H753.092z m-243.636-88.727q5.091-5.091 12.364-8t14.545-2.909q7.273 0 14.545 2.909t12.364 8 8 12.364 2.909 14.545q0 7.273-2.909 14.545-2.909 6.545-8 12.364t-12.364 8-14.545 2.909q-7.273 0-14.545-2.909t-12.364-8q-5.091-5.818-8-12.364-2.909-7.273-2.909-14.545 0-7.273 2.909-14.545 2.909-7.273 8-12.364z" p-id="3609" fill="#8a8a8a"></path></svg>