<?xml version="1.0" standalone="no"?><!DOCTYPE svg PUBLIC "-//W3C//DTD SVG 1.1//EN" "http://www.w3.org/Graphics/SVG/1.1/DTD/svg11.dtd"><svg t="1536827712359" class="icon" style="" viewBox="0 0 1024 1024" version="1.1" xmlns="http://www.w3.org/2000/svg" p-id="4438" xmlns:xlink="http://www.w3.org/1999/xlink" width="64" height="64"><defs><style type="text/css"></style></defs><path d="M660.87424 493.4912c-18.91328 1.56672-33.08544 16.54272-33.08544 34.65216 0 18.91328 14.95552 33.8688 33.8688 34.65216h1.56672c63.0016 7.10656 118.95808 34.67264 159.91296 81.13152l3.12832 3.95776v-70.10816l-0.78336-0.78336c-21.25824-15.76448-45.696-29.93664-73.26208-41.76384l-10.99776-4.71552 9.43616-6.30272c57.47712-38.58944 92.17536-103.17312 92.17536-173.2864 0-95.30368-66.95936-180.37248-159.91296-202.43968h-4.74112c-16.52224 0-30.6944 14.17728-30.6944 29.93664-0.78336 16.54272 9.43616 29.12768 24.39168 31.49824h0.78336l0.78336 0.80384c2.39104 0.78336 5.52448 1.56672 5.52448 1.56672h0.82432c59.04384 19.69664 98.43712 74.8288 98.43712 137.85088 2.34496 70.89152-48.0512 130.7392-117.35552 143.34976z m0 0" fill="#1296db" p-id="4439"></path><path d="M520.65792 543.11936l-11.04384-4.74112 10.26048-7.08608c70.08768-47.2576 111.82592-125.24032 111.82592-208.7168 0-138.63424-112.60928-251.2896-251.264-251.2896-138.60864 0-251.264 114.24256-251.264 252.06784 0 83.47648 41.73824 161.4592 111.872 208.7424l10.21952 7.0656-10.99776 4.74112C94.52032 601.40032 0 740.03456 0 896.01536c0 4.69504 0 9.43616 0.78336 13.36832 0 4.71552 0.78336 8.6528 0.78336 13.3888 0 16.54272 12.60544 29.93664 29.95712 29.93664 16.52224 0 29.91616-12.60544 29.91616-29.93664v-3.15392c-0.78336-7.08608-1.56672-15.75936-1.56672-24.41216 0-176.45568 144.128-320.5888 320.56832-320.5888s320.6144 144.13312 320.6144 320.5888c0 8.6528-0.82944 18.10944-1.60768 25.19552v1.56672c0.78336 15.78496 14.17728 28.36992 29.95712 28.36992 15.73888 0 29.12768-13.39392 29.91104-29.15328 0.78336-9.43616 0.78336-18.10944 0.78336-26.78272-1.57184-155.17184-94.53056-293.00224-239.44192-351.2832zM189.04576 323.35872c0-105.54368 85.86752-191.39584 191.39072-191.39584 105.56928 0 191.4368 85.85216 191.4368 191.39584s-85.86752 191.39072-191.4368 191.39072c-105.5232 0-191.39072-85.84704-191.39072-191.39072z m806.57408 381.21984h-71.69536v-71.67488a28.2112 28.2112 0 0 0-28.34944-28.34944 28.22656 28.22656 0 0 0-28.34944 28.34944v71.67488h-71.6544a28.25728 28.25728 0 0 0-28.3904 28.36992 28.25216 28.25216 0 0 0 28.3904 28.34944h71.6544v71.67488a28.24704 28.24704 0 0 0 28.34944 28.36992 28.21632 28.21632 0 0 0 28.34944-28.36992v-71.68h71.69536a28.24192 28.24192 0 0 0 28.34944-28.34944c0.77824-15.75424-12.61056-28.3648-28.34944-28.3648z m0 0" fill="#1296db" p-id="4440"></path></svg>