<?xml version="1.0" standalone="no"?><!DOCTYPE svg PUBLIC "-//W3C//DTD SVG 1.1//EN" "http://www.w3.org/Graphics/SVG/1.1/DTD/svg11.dtd"><svg t="1534997837000" class="icon" style="" viewBox="0 0 1024 1024" version="1.1" xmlns="http://www.w3.org/2000/svg" p-id="1934" xmlns:xlink="http://www.w3.org/1999/xlink" width="200" height="200"><defs><style type="text/css"></style></defs><path d="M133.12 242.688l762.88 0 0 632.6272-762.88 0 0-632.6272Z" fill="#FFF471" p-id="1935"></path><path d="M778.24 890.88H250.88a133.12 133.12 0 0 1-133.12-133.12V360.448a133.12 133.12 0 0 1 133.12-133.12H778.24a133.12 133.12 0 0 1 133.12 133.12V757.76a133.12 133.12 0 0 1-133.12 133.12zM250.88 258.048a102.4 102.4 0 0 0-102.4 102.4V757.76a102.4 102.4 0 0 0 102.4 102.4H778.24a102.4 102.4 0 0 0 102.4-102.4V360.448a102.4 102.4 0 0 0-102.4-102.4z" fill="" p-id="1936"></path><path d="M133.12 242.688l762.88 0 0 632.6272-762.88 0 0-632.6272Z" fill="#FFFFFF" p-id="1937"></path><path d="M778.24 890.88H250.88a133.12 133.12 0 0 1-133.12-133.12V360.448a133.12 133.12 0 0 1 133.12-133.12H778.24a133.12 133.12 0 0 1 133.12 133.12V757.76a133.12 133.12 0 0 1-133.12 133.12zM250.88 258.048a102.4 102.4 0 0 0-102.4 102.4V757.76a102.4 102.4 0 0 0 102.4 102.4H778.24a102.4 102.4 0 0 0 102.4-102.4V360.448a102.4 102.4 0 0 0-102.4-102.4z" fill="#53ADEA" p-id="1938"></path><path d="M896 360.448A117.76 117.76 0 0 0 778.24 242.688H250.88A117.76 117.76 0 0 0 133.12 360.448v33.792h762.88z" fill="#7BD7FF" p-id="1939"></path><path d="M896 409.6H133.12a15.36 15.36 0 0 1-15.36-15.36v-33.792a133.12 133.12 0 0 1 133.12-133.12H778.24a133.12 133.12 0 0 1 133.12 133.12v33.792a15.36 15.36 0 0 1-15.36 15.36z m-747.52-30.72H880.64v-18.432a102.4 102.4 0 0 0-102.4-102.4H250.88a102.4 102.4 0 0 0-102.4 102.4z" fill="#53ADEA" p-id="1940"></path><path d="M142.336 380.928H890.88v30.72H142.336zM142.336 474.112H890.88v30.72H142.336z" fill="" p-id="1941"></path><path d="M337.92 661.504L444.416 768l246.784-208.896" fill="#FFFFFF" p-id="1942"></path><path d="M444.416 783.36a15.36 15.36 0 0 1-11.264-4.096L326.656 671.744a15.36 15.36 0 1 1 21.504-21.504l97.28 97.28 235.52-199.68a15.36 15.36 0 1 1 19.456 23.552l-245.76 208.896a15.36 15.36 0 0 1-10.24 3.072z" fill="#53ADEA" p-id="1943"></path><path d="M138.24 394.24h757.76v92.16h-757.76z" fill="#FF977B" p-id="1944"></path><path d="M896 501.76h-757.76a15.36 15.36 0 0 1-15.36-15.36v-92.16a15.36 15.36 0 0 1 15.36-15.36h757.76a15.36 15.36 0 0 1 15.36 15.36v92.16a15.36 15.36 0 0 1-15.36 15.36zM153.6 471.04h727.04v-61.44H153.6z" fill="" p-id="1945"></path><path d="M133.12 394.24h762.88v92.16H133.12z" fill="#FF977B" p-id="1946"></path><path d="M896 501.76H133.12a15.36 15.36 0 0 1-15.36-15.36v-92.16A15.36 15.36 0 0 1 133.12 378.88h762.88a15.36 15.36 0 0 1 15.36 15.36v92.16a15.36 15.36 0 0 1-15.36 15.36z m-747.52-30.72H880.64v-61.44H148.48z" fill="#F46460" p-id="1947"></path><path d="M660.48 158.72h61.44v163.84h-61.44z" fill="#FFFFFF" p-id="1948"></path><path d="M721.92 337.92h-61.44a15.36 15.36 0 0 1-15.36-15.36v-163.84a15.36 15.36 0 0 1 15.36-15.36h61.44a15.36 15.36 0 0 1 15.36 15.36v163.84a15.36 15.36 0 0 1-15.36 15.36zM675.84 307.2h30.72V174.08h-30.72z" fill="#53ADEA" p-id="1949"></path><path d="M291.84 158.72h61.44v163.84h-61.44z" fill="#FFFFFF" p-id="1950"></path><path d="M353.28 337.92h-61.44a15.36 15.36 0 0 1-15.36-15.36v-163.84a15.36 15.36 0 0 1 15.36-15.36h61.44a15.36 15.36 0 0 1 15.36 15.36v163.84a15.36 15.36 0 0 1-15.36 15.36zM307.2 307.2h30.72V174.08h-30.72z" fill="#53ADEA" p-id="1951"></path></svg>