<?xml version="1.0" standalone="no"?>
<!DOCTYPE svg PUBLIC "-//W3C//DTD SVG 1.1//EN" "http://www.w3.org/Graphics/SVG/1.1/DTD/svg11.dtd">
<svg t="1561427057435" class="icon" viewBox="0 0 1072 1024" version="1.1" xmlns="http://www.w3.org/2000/svg" p-id="3334" xmlns:xlink="http://www.w3.org/1999/xlink" width="33.5" height="32">
<defs>
<style type="text/css"></style>
</defs>
<path d="M516.900571 80.871619c-3.218286 11.312762-15.920762 60.806095-17.822476 67.900952-8.899048 33.206857-17.359238 60.635429-27.599238 87.600762-13.775238 36.327619-29.842286 69.022476-49.42019 98.694096-61.68381 93.379048-123.172571 146.846476-193.414096 153.843809a73.142857 73.142857 0 0 1-7.241142 0.341333H97.52381a24.380952 24.380952 0 0 0-24.380953 24.380953V926.47619a24.380952 24.380952 0 0 0 24.380953 24.380953h740.449523a48.761905 48.761905 0 0 0 46.957715-35.718095l101.13219-364.080762a48.761905 48.761905 0 0 0-46.982095-61.805715H670.256762a97.52381 97.52381 0 0 1-93.622857-124.879238c13.141333-44.909714 20.065524-106.691048 20.065524-184.661333 0-42.325333-17.529905-71.119238-48.298667-90.087619a121.344 121.344 0 0 0-30.159238-13.312l-1.340953 4.559238z m-295.497142 335.238095c42.422857-4.217905 88.990476-44.665905 139.605333-121.344C436.955429 179.736381 438.076952 23.28381 475.599238 4.315429c37.497905-18.968381 194.243048 21.991619 194.243048 175.396571 0 84.358095-7.68 152.771048-22.991238 205.190095a24.380952 24.380952 0 0 0 23.405714 31.207619h268.824381a121.904762 121.904762 0 0 1 117.467428 154.526476l-101.13219 364.080762A121.904762 121.904762 0 0 1 837.948952 1024H97.52381a97.52381 97.52381 0 0 1-97.52381-97.52381V513.633524a97.52381 97.52381 0 0 1 97.52381-97.52381h123.879619z" 
fill="#1296db" p-id="3335">
</path>
<path d="M195.047619 463.238095h73.142857v536.380953H195.047619z" fill="#1296db" p-id="3336"></path>
</svg>