<?xml version="1.0" standalone="no"?><!DOCTYPE svg PUBLIC "-//W3C//DTD SVG 1.1//EN" "http://www.w3.org/Graphics/SVG/1.1/DTD/svg11.dtd"><svg t="1557212948386" class="icon" style="" viewBox="0 0 1024 1024" version="1.1" xmlns="http://www.w3.org/2000/svg" p-id="16620" xmlns:xlink="http://www.w3.org/1999/xlink" width="64" height="64"><defs><style type="text/css"></style></defs><path d="M512 51.2c-254.464 0-460.8 206.336-460.8 460.8s206.336 460.8 460.8 460.8 460.8-206.336 460.8-460.8-206.336-460.8-460.8-460.8z m0 870.4c-226.304 0-409.6-183.296-409.6-409.6s183.296-409.6 409.6-409.6 409.6 183.296 409.6 409.6-183.296 409.6-409.6 409.6z" fill="#3D3D3D" p-id="16621"></path><path d="M476.101317 540.550655a40.96 40.96 0 1 0 57.925177-57.927199 40.96 40.96 0 1 0-57.925177 57.927199Z" fill="#3D3D3D" p-id="16622"></path><path d="M399.36 405.504l-168.96 380.928 380.928-168.96 169.984-382.464L399.36 405.504z m-58.368 269.824l95.744-231.936 232.96-96.768-97.28 232.96-231.424 95.744z" fill="#3D3D3D" p-id="16623"></path></svg>