<?xml version="1.0" standalone="no"?><!DOCTYPE svg PUBLIC "-//W3C//DTD SVG 1.1//EN" "http://www.w3.org/Graphics/SVG/1.1/DTD/svg11.dtd"><svg t="1559790199065" class="icon" style="" viewBox="0 0 1024 1024" version="1.1" xmlns="http://www.w3.org/2000/svg" p-id="4771" xmlns:xlink="http://www.w3.org/1999/xlink" width="32" height="32"><defs><style type="text/css"></style></defs><path d="M768 440.32a86.08 86.08 0 0 0-32 5.44 88.96 88.96 0 0 0-77.76-45.44 93.76 93.76 0 0 0-32 5.76 90.88 90.88 0 0 0-96-43.84V309.12a90.24 90.24 0 0 0-88.32-92.16h-1.92a92.8 92.8 0 0 0-92.8 92.16v254.4l-18.24-19.52a96 96 0 0 0-131.52 0 110.08 110.08 0 0 0-32 61.76A86.72 86.72 0 0 0 192 681.92l213.12 211.52a100.16 100.16 0 0 0 15.36 12.48C459.52 938.24 506.56 960 608 960c232 0 251.52-136.32 251.52-275.52v-151.68a89.92 89.92 0 0 0-87.36-92.48z m-359.04 274.56a16.64 16.64 0 0 0 10.24-15.36v-384a19.2 19.2 0 0 1 19.2-19.2 17.6 17.6 0 0 1 17.28 17.92v245.76a36.48 36.48 0 1 0 72.96 0v-99.2a18.24 18.24 0 0 1 16.96-19.52 17.6 17.6 0 0 1 18.88 19.52v131.52a15.68 15.68 0 0 0 0 1.92v1.92a36.8 36.8 0 0 0 73.28 0v-2.24a17.6 17.6 0 0 0 0-1.92v-91.52a17.6 17.6 0 0 1 16-19.2 20.16 20.16 0 0 1 21.12 19.2v118.4a36.48 36.48 0 0 0 36.16 36.8 36.16 36.16 0 0 0 36.48-35.84v-2.24a16.96 16.96 0 0 0 0-1.92v-78.4a18.24 18.24 0 0 1 17.28-19.2h3.2a21.12 21.12 0 0 1 13.44 4.8 19.84 19.84 0 0 1 4.48 14.4v146.88c0 122.24 0 202.88-178.56 202.88-74.24 0-121.28-15.36-157.44-50.88l-201.6-200.64a21.44 21.44 0 0 1-1.6-30.4l1.6-1.6a24.64 24.64 0 0 1 16.96-6.4 21.44 21.44 0 0 1 15.04 5.44l65.92 64 43.2 42.88a16.64 16.64 0 0 0 19.52 5.44z" fill="#e6e6e6" p-id="4772"></path><path d="M430.4 64a199.68 199.68 0 0 0-134.72 346.88 16.64 16.64 0 0 0 27.84-12.16V320a16.32 16.32 0 0 0 0-6.72 120 120 0 1 1 226.24-22.4 16.64 16.64 0 0 0 12.8 19.84h2.56a48.32 48.32 0 0 1 32 14.4 16.64 16.64 0 0 0 27.84-7.04 199.36 199.36 0 0 0-192-253.76z" fill="#e6e6e6" p-id="4773"></path></svg>