<?xml version="1.0" standalone="no"?><!DOCTYPE svg PUBLIC "-//W3C//DTD SVG 1.1//EN" "http://www.w3.org/Graphics/SVG/1.1/DTD/svg11.dtd"><svg t="1564453299766" class="icon" viewBox="0 0 1024 1024" version="1.1" xmlns="http://www.w3.org/2000/svg" p-id="2129" xmlns:xlink="http://www.w3.org/1999/xlink" width="64" height="64"><defs><style type="text/css"></style></defs><path d="M980.549818 824.785455l0.069818-0.116364L554.938182 92.229818a56.645818 56.645818 0 0 0-6.725818-11.566545l-0.302546-0.512h-0.116363c-10.589091-14.126545-27.298909-23.412364-46.312728-23.412364s-35.746909 9.285818-46.312727 23.412364h-0.186182l-0.349091 0.605091c-2.583273 3.560727-4.887273 7.307636-6.632727 11.403636L27.322182 816.733091a57.972364 57.972364 0 0 0-10.961455 18.874182l-0.279272 0.488727 0.09309 0.139636c-1.954909 5.818182-3.258182 11.938909-3.258181 18.408728 0 29.928727 22.760727 54.295273 51.874909 57.390545l0.116363 0.186182h1.652364c1.466182 0.116364 2.862545 0.442182 4.352 0.442182 1.466182 0 2.862545-0.325818 4.305455-0.442182l855.808 0.442182a58.018909 58.018909 0 0 0 58.018909-58.018909 57.483636 57.483636 0 0 0-8.494546-29.858909z m-891.345454 17.873454L500.642909 136.727273l408.925091 705.931636H89.204364z" fill="#3D3D3D" p-id="2130"></path><path d="M459.170909 377.832727c0 25.250909 20.829091 187.042909 46.545455 187.042909s46.545455-161.792 46.545454-187.042909c0-25.227636-20.829091-45.684364-46.545454-45.684363s-46.545455 20.456727-46.545455 45.684363z" fill="#3D3D3D" p-id="2131"></path><path d="M505.716364 685.893818m-46.545455 0a46.545455 46.545455 0 1 0 93.090909 0 46.545455 46.545455 0 1 0-93.090909 0Z" fill="#3D3D3D" p-id="2132"></path></svg>