<?xml version="1.0" standalone="no"?><!DOCTYPE svg PUBLIC "-//W3C//DTD SVG 1.1//EN" "http://www.w3.org/Graphics/SVG/1.1/DTD/svg11.dtd"><svg t="1560744189718" class="icon" style="" viewBox="0 0 2784 1024" version="1.1" xmlns="http://www.w3.org/2000/svg" p-id="2098" data-spm-anchor-id="a313x.7781069.0.i0" xmlns:xlink="http://www.w3.org/1999/xlink" width="87" height="32"><defs><style type="text/css"></style></defs><path d="M432 512c0 35.34336 28.65664 64 64 64s64-28.65664 64-64-28.65664-64-64-64-64 28.65664-64 64zM632.00256 512c0 57.44128 46.56128 104.00256 104.00256 104.00256s104.00256-46.56128 104.00256-104.00256c0-57.43616-46.56128-104.00256-104.00256-104.00256S632.00256 454.56384 632.00256 512zM912 512c0 35.34336 28.65664 64 64 64s64-28.65664 64-64-28.65664-64-64-64-64 28.65664-64 64zM1384.00256 294.4h16v436.80256h-16V294.4zM2073.6 240c-150.4 0-272 121.6-272 272s121.6 272 272 272 272-121.6 272-272S2224 240 2073.6 240z m0 480c-115.2 0-208-92.8-208-208S1958.4 304 2073.6 304 2281.6 396.8 2281.6 512 2188.8 720 2073.6 720z" fill="#333333" p-id="2099"></path><path d="M1969.60256 512c0 57.44128 46.56128 104.00256 104.00256 104.00256s104.00256-46.56128 104.00256-104.00256c0-57.43616-46.56128-104.00256-104.00256-104.00256S1969.60256 454.56384 1969.60256 512z" fill="#333333" p-id="2100"></path></svg>