<?xml version="1.0" standalone="no"?><!DOCTYPE svg PUBLIC "-//W3C//DTD SVG 1.1//EN" "http://www.w3.org/Graphics/SVG/1.1/DTD/svg11.dtd"><svg t="1536825202996" class="icon" style="" viewBox="0 0 1024 1024" version="1.1" xmlns="http://www.w3.org/2000/svg" p-id="3608" xmlns:xlink="http://www.w3.org/1999/xlink" width="32" height="32"><defs><style type="text/css"></style></defs><path d="M932.2 950.5H93.8c-15.2 0-27.5-12.3-27.5-27.5V94.4c0-15.2 12.3-27.5 27.5-27.5h838.4c15.2 0 27.5 12.3 27.5 27.5V923c0 15.2-12.3 27.5-27.5 27.5z m-810.9-55h783.5V121.9H121.3v773.6z" p-id="3609" fill="#1296db"></path><path d="M194 262.7h30.1l90.8 132.5h1V262.7h30.4v183.7H317l-91.9-134.3h-1v134.3H194V262.7zM420.8 262.7h132.5v25.7H450.9v50.9h96.2V365h-96.2v55.6h106.8v25.7H420.8V262.7zM604.1 262.7h34l34.5 139.7h1l36.3-139.7H741l36.3 139.7h1l34.5-139.7h34l-53 183.7h-31.9l-35.8-138.2h-1l-36 138.2h-32.2l-52.8-183.7z" p-id="3610" fill="#1296db"></path><path d="M817.4 609.4h-594c-15.2 0-27.5-12.3-27.5-27.5s12.3-27.5 27.5-27.5h594c15.2 0 27.5 12.3 27.5 27.5s-12.3 27.5-27.5 27.5z" p-id="3611" fill="#1296db"></path><path d="M817.4 779.8h-594c-15.2 0-27.5-12.3-27.5-27.5s12.3-27.5 27.5-27.5h594c15.2 0 27.5 12.3 27.5 27.5s-12.3 27.5-27.5 27.5z" p-id="3612" fill="#1296db"></path></svg>