<?xml version="1.0" standalone="no"?><!DOCTYPE svg PUBLIC "-//W3C//DTD SVG 1.1//EN" "http://www.w3.org/Graphics/SVG/1.1/DTD/svg11.dtd"><svg t="1536884992992" class="icon" style="" viewBox="0 0 1024 1024" version="1.1" xmlns="http://www.w3.org/2000/svg" p-id="3745" xmlns:xlink="http://www.w3.org/1999/xlink" width="64" height="64"><defs><style type="text/css"></style></defs><path d="M938.667008 716.8a17.066667 17.066667 0 0 0 17.066667-17.066667v-68.266666a17.066667 17.066667 0 0 0-17.066667-17.066667h-85.333333v-17.066667a17.066667 17.066667 0 1 0-34.133334 0v17.066667H341.333675v-17.066667a17.066667 17.066667 0 0 0-34.133334 0v17.066667h-85.333333a17.066667 17.066667 0 0 0-17.066667 17.066667v68.266666a17.066667 17.066667 0 0 0 17.066667 17.066667h716.8z m-699.733333-68.266667h682.666666v34.133334H238.933675v-34.133334z" fill="#1296db" p-id="3746"></path><path d="M1006.933675 750.933333h-153.6v-17.066666a17.066667 17.066667 0 1 0-34.133334 0v17.066666H341.333675v-17.066666a17.066667 17.066667 0 0 0-34.133334 0v17.066666H153.600341a17.066667 17.066667 0 0 0-17.066666 17.066667v68.266667a17.066667 17.066667 0 0 0 17.066666 17.066666h51.2v85.333334a17.066667 17.066667 0 0 0 34.133334 0v-85.333334h682.666666v85.333334a17.066667 17.066667 0 1 0 34.133334 0v-85.333334h51.2a17.066667 17.066667 0 0 0 17.066666-17.066666v-68.266667a17.066667 17.066667 0 0 0-17.066666-17.066667z m-836.266667 34.133334h819.2v34.133333H170.667008v-34.133333zM938.667008 580.266667a17.066667 17.066667 0 0 0 17.066667-17.066667v-68.266667a17.066667 17.066667 0 0 0-17.066667-17.066666h-85.333333v-17.066667a17.066667 17.066667 0 1 0-34.133334 0v17.066667H341.333675v-17.066667a17.066667 17.066667 0 0 0-34.133334 0v17.066667h-85.333333a17.066667 17.066667 0 0 0-17.066667 17.066666v68.266667a17.066667 17.066667 0 0 0 17.066667 17.066667h716.8z m-699.733333-68.266667h682.666666v34.133333H238.933675v-34.133333zM34.133675 238.933333h102.4a17.066667 17.066667 0 0 0 16.981333-15.36l17.066667-170.666666A17.066667 17.066667 0 0 0 153.600341 34.133333H102.400341V17.066667a17.066667 17.066667 0 0 0-34.133333 0v17.066666H17.067008a17.066667 17.066667 0 0 0-16.981333 18.773334l17.066666 170.666666A17.066667 17.066667 0 0 0 34.133675 238.933333zM134.741675 68.266667l-13.653334 136.533333h-71.509333l-13.653333-136.533333h98.816zM614.400341 375.466667c-27.5968 0-45.431467 20.974933-47.377066 23.381333a16.964267 16.964267 0 0 0 2.4064 23.825067c7.236267 5.9904 17.937067 4.949333 23.995733-2.184534 0.068267-0.119467 9.3184-10.888533 20.974933-10.888533s20.8896 10.769067 20.8896 10.769067a17.066667 17.066667 0 0 0 26.487467-21.521067C659.831808 396.4416 641.997141 375.466667 614.400341 375.466667M703.556608 335.018667a17.015467 17.015467 0 0 0 24.0128 2.491733 17.0496 17.0496 0 0 0 2.474667-23.995733C728.098475 311.108267 710.263808 290.133333 682.667008 290.133333c-27.5968 0-45.431467 20.974933-47.377067 23.381334a16.964267 16.964267 0 0 0 2.4064 23.825066c7.236267 6.007467 17.937067 4.949333 23.978667-2.184533 0.085333-0.119467 9.335467-10.888533 20.992-10.888533 11.656533 0 20.8896 10.769067 20.8896 10.769066M642.031275 237.585067a17.117867 17.117867 0 0 0 22.289066-9.216 26.112 26.112 0 0 1 1.28-2.6112c0.477867 0.853333 0.9216 1.7408 1.245867 2.542933a17.083733 17.083733 0 0 0 31.6416-12.8512C696.593408 210.824533 686.182741 187.733333 665.600341 187.733333s-30.993067 23.0912-32.887466 27.716267a17.015467 17.015467 0 0 0 9.3184 22.135467" fill="#1296db" p-id="3747"></path><path d="M499.831808 442.487467a17.032533 17.032533 0 0 0 24.1152-0.904534 17.083733 17.083733 0 0 0-0.904533-24.132266A33.621333 33.621333 0 0 1 512.000341 392.533333c0-14.1312 8.994133-26.948267 22.408534-31.880533a17.1008 17.1008 0 0 0 5.700266-28.535467A33.621333 33.621333 0 0 1 529.067008 307.2a34.133333 34.133333 0 0 1 31.812267-33.826133 17.066667 17.066667 0 0 0 11.4176-28.552534A33.962667 33.962667 0 0 1 563.200341 221.866667a34.133333 34.133333 0 0 1 31.812267-33.826134 17.066667 17.066667 0 0 0 11.4176-28.552533A34.048 34.048 0 0 1 597.333675 136.533333c0-15.2576 10.3936-28.7232 25.258666-32.750933a17.0496 17.0496 0 0 0 11.383467-22.818133A34.4064 34.4064 0 0 1 631.467008 68.266667c0-18.824533 15.3088-34.133333 34.133333-34.133334s34.133333 15.3088 34.133334 34.133334c0 4.2496-0.853333 8.516267-2.5088 12.6976a17.0496 17.0496 0 0 0 11.383466 22.818133A34.0992 34.0992 0 0 1 733.867008 136.533333c0 8.3968-3.242667 16.554667-9.096533 22.954667a17.066667 17.066667 0 0 0 11.4176 28.552533A34.133333 34.133333 0 0 1 768.000341 221.866667c0 8.3968-3.242667 16.554667-9.096533 22.954666a17.066667 17.066667 0 0 0 11.4176 28.552534A34.133333 34.133333 0 0 1 802.133675 307.2a33.621333 33.621333 0 0 1-11.042134 24.917333 17.1008 17.1008 0 0 0 5.717334 28.535467A34.184533 34.184533 0 0 1 819.200341 392.533333a17.066667 17.066667 0 1 0 34.133334 0 68.266667 68.266667 0 0 0-25.326934-52.855466A67.345067 67.345067 0 0 0 836.267008 307.2a68.266667 68.266667 0 0 0-38.6048-61.2352c2.935467-7.645867 4.471467-15.803733 4.471467-24.098133a68.266667 68.266667 0 0 0-38.6048-61.2352C766.464341 152.9856 768.000341 144.827733 768.000341 136.533333a68.215467 68.215467 0 0 0-34.747733-59.255466A68.334933 68.334933 0 0 0 665.600341 0a68.334933 68.334933 0 0 0-67.652266 77.277867A68.215467 68.215467 0 0 0 563.200341 136.533333c0 8.2944 1.536 16.452267 4.471467 24.098134A68.266667 68.266667 0 0 0 529.067008 221.866667c0 8.2944 1.536 16.452267 4.471467 24.098133A68.266667 68.266667 0 0 0 494.933675 307.2c0 11.554133 2.8672 22.6304 8.260266 32.477867A68.266667 68.266667 0 0 0 477.867008 392.533333c0 19.080533 7.799467 36.829867 21.9648 49.954134M256.000341 989.866667H102.400341V290.133333a17.066667 17.066667 0 0 0-34.133333 0v699.733334H17.067008a17.066667 17.066667 0 0 0 0 34.133333h238.933333a17.066667 17.066667 0 0 0 0-34.133333M529.067008 989.866667H358.400341a17.066667 17.066667 0 0 0 0 34.133333h170.666667a17.066667 17.066667 0 1 0 0-34.133333M1006.933675 989.866667H733.867008a17.066667 17.066667 0 1 0 0 34.133333h273.066667a17.066667 17.066667 0 1 0 0-34.133333M665.600341 989.866667h-34.133333a17.066667 17.066667 0 1 0 0 34.133333h34.133333a17.066667 17.066667 0 1 0 0-34.133333" fill="#1296db" p-id="3748"></path></svg>