<?xml version="1.0" standalone="no"?><!DOCTYPE svg PUBLIC "-//W3C//DTD SVG 1.1//EN" "http://www.w3.org/Graphics/SVG/1.1/DTD/svg11.dtd"><svg t="1536827901629" class="icon" style="" viewBox="0 0 1024 1024" version="1.1" xmlns="http://www.w3.org/2000/svg" p-id="6070" xmlns:xlink="http://www.w3.org/1999/xlink" width="64" height="64"><defs><style type="text/css"></style></defs><path d="M267.607874 501.619582" p-id="6071" fill="#1296db"></path><path d="M256.122285 757.433852" p-id="6072" fill="#1296db"></path><path d="M770.848373 884.313587l-0.079818-65.491597 111.648846-0.1361c-0.968048-9.284457-3.563152-17.537422-10.894118-26.158776-15.604396-14.242376-39.787168-29.008684-71.885214-43.895743l27.555589-59.412135c38.360679 17.792225 68.239174 36.373419 88.801489 55.230905 1.746784 1.600451 3.405563 3.309372 4.926196 5.074575 22.328541 25.940812 26.230408 52.247968 27.223015 69.77925 0.946558 16.7198-5.115508 33.311687-16.632819 45.51973-11.57257 12.267395-27.882024 19.320021-44.747133 19.348674L770.848373 884.313587z" p-id="6073" fill="#1296db"></path><path d="M532.438495 884.806821l-0.065492 0-383.481951-0.929162c-16.8559-0.042979-33.151028-7.099698-44.711318-19.363-11.506055-12.204973-17.564028-28.788673-16.620539-45.500287 0.99056-17.542538 4.889357-43.86095 27.215852-69.799716 1.517563-1.763157 3.175319-3.472078 4.929266-5.080715 55.171554-50.589189 165.543314-88.878237 250.910587-112.569822 3.041266-9.894348 6.64842-27.455305 8.659217-43.023886-4.313236-27.440979-20.705578-66.829058-73.985038-99.979062-35.481096-22.075785-55.577806-56.400544-55.137785-94.173846 0.417509-35.808554 19.171642-69.859068 47.781236-86.74669 1.330298-0.785899 3.341095-1.971911 5.385661-9.530051 2.665713-9.857509 3.684926-24.793686 4.864798-42.086537 1.130753-16.578584 2.412956-35.368532 5.467525-56.794517 5.146207-36.094056 34.891671-68.876694 88.409562-97.43717 36.948517-19.718087 76.41539-32.996508 96.652294-39.156812 17.374716-5.288446 36.099173-0.375553 48.860824 12.82919l28.462239 29.455869c16.871249 0.940418 43.430138 3.918239 69.106937 12.976546 55.92266 19.730367 72.14104 55.287187 75.898621 81.641415 3.054569 21.427008 4.335748 40.216957 5.467525 56.794517 1.178849 17.293875 2.198062 32.230052 4.864798 42.086537 2.044566 7.559163 4.055362 8.745175 5.385661 9.531074 28.608571 16.887622 47.363727 50.938136 47.780213 86.74669 0.441045 37.773302-19.656689 72.099085-55.136761 94.174869-45.899376 28.557406-71.499427 62.337767-74.0536 97.706299 2.287089 13.755282 24.3772 65.117067 30.861892 74.895781-0.201591-0.303922-5.059226-7.486508-15.435551-10.680247l-19.260669 62.59564c-14.85022-4.570085-21.278629-17.10354-26.950815-28.161387-3.90596-7.615445-8.572236-17.631566-13.139252-28.203342-6.779404-15.692401-18.518772-44.552705-20.962427-61.528332-0.615007-4.26207-0.775666-8.651031-0.475837-13.041014 2.725064-40.006156 23.12365-98.364285 104.818277-149.192927 16.265452-10.119475 24.422226-22.838148 24.248264-37.804001-0.166799-14.329357-8.15575-26.724665-15.587-31.111578-36.710087-21.671579-39.423895-61.447491-42.296315-103.558587-1.054005-15.451924-2.248204-32.964786-4.964058-52.008514-4.071735-28.562523-57.995879-37.768185-89.215928-38.70451-12.660344-0.379647-24.539906-5.666046-33.450856-14.888082l-25.816992-26.717502c-17.880229 5.852288-47.677882 16.61133-74.827219 31.100322-47.64002 25.423019-53.688783 43.856857-54.408167 48.901757-2.714831 19.042705-3.910053 36.556591-4.964058 52.008514-2.873444 42.111097-5.586229 81.885985-42.296315 103.557564-7.432273 4.386914-15.420201 16.782222-15.587 31.111578-0.173962 14.965853 7.983835 27.684526 24.248264 37.804001 32.749892 20.377096 58.542324 45.171806 76.66303 73.697489 14.437827 22.727631 23.717168 47.205115 27.581172 72.754001 0.838088 5.535063 0.900509 11.190877 0.188288 16.805758-0.468674 3.682879-3.037173 23.011086-7.695263 42.050722-5.754051 23.515576-14.077623 46.200228-35.83516 52.892651-1.254573 0.385786-2.798742 0.809435-6.481621 1.814322-110.107747 30.066783-193.951317 66.227354-230.124168 99.238189-7.384178 8.679683-9.939373 16.709567-10.902304 26.188452l379.198391 0.918929 150.409638-0.246617 0.107447 65.491597L532.438495 884.806821z" p-id="6074" fill="#1296db"></path><path d="M813.416887 718.924793" p-id="6075" fill="#1296db"></path><path d="M847.052962 951.784258l-87.270623-87.270623c-10.011005-10.011005-10.011005-26.393113 0-36.404118l5.378497-5.378497c10.011005-10.011005 26.393113-10.011005 36.404118 0l87.270623 87.270623c10.011005 10.011005 10.011005 26.393113 0 36.404118l-5.378497 5.378497C873.446076 961.795263 857.063967 961.795263 847.052962 951.784258z" p-id="6076" fill="#1296db"></path><path d="M722.117508 899.046127c-74.404594 0-134.937249-60.532655-134.937249-134.937249s60.532655-134.937249 134.937249-134.937249 134.937249 60.532655 134.937249 134.937249S796.522102 899.046127 722.117508 899.046127zM722.117508 694.662203c-38.293141 0-69.445652 31.152511-69.445652 69.445652s31.152511 69.445652 69.445652 69.445652 69.445652-31.152511 69.445652-69.445652S760.41065 694.662203 722.117508 694.662203z" p-id="6077" fill="#1296db"></path></svg>