<?xml version="1.0" standalone="no"?><!DOCTYPE svg PUBLIC "-//W3C//DTD SVG 1.1//EN" "http://www.w3.org/Graphics/SVG/1.1/DTD/svg11.dtd"><svg t="1561368215155" class="icon" viewBox="0 0 1024 1024" version="1.1" xmlns="http://www.w3.org/2000/svg" p-id="7458" xmlns:xlink="http://www.w3.org/1999/xlink" width="32" height="32"><defs><style type="text/css"></style></defs><path d="M256 512m-64 0a64 64 0 1 0 128 0 64 64 0 1 0-128 0Z" fill="#8f8f94" p-id="7459"></path><path d="M512 512m-64 0a64 64 0 1 0 128 0 64 64 0 1 0-128 0Z" fill="#8f8f94" p-id="7460"></path><path d="M768 512m-64 0a64 64 0 1 0 128 0 64 64 0 1 0-128 0Z" fill="#8f8f94" p-id="7461"></path><path d="M810.666667 128c46.933333 0 85.333333 38.4 85.333333 85.333333v298.666667c0 213.333333-170.666667 384-384 384s-384-170.666667-384-384 170.666667-384 384-384h298.666667m0-85.333333h-298.666667C251.733333 42.666667 42.666667 251.733333 42.666667 512s209.066667 469.333333 469.333333 469.333333 469.333333-209.066667 469.333333-469.333333V213.333333c0-93.866667-76.8-170.666667-170.666666-170.666666z" fill="#8f8f94" p-id="7462"></path></svg>