<?xml version="1.0" standalone="no"?><!DOCTYPE svg PUBLIC "-//W3C//DTD SVG 1.1//EN" "http://www.w3.org/Graphics/SVG/1.1/DTD/svg11.dtd"><svg t="1539858660401" class="icon" style="" viewBox="0 0 1024 1024" version="1.1" xmlns="http://www.w3.org/2000/svg" p-id="4919" xmlns:xlink="http://www.w3.org/1999/xlink" width="64" height="64"><defs><style type="text/css"></style></defs><path d="M950.272 237.568c-12.288 0-22.528-10.24-22.528-22.528V135.168c-4.096-32.768-28.672-57.344-61.44-57.344H157.696c-32.768 0-61.44 26.624-61.44 59.392V212.992c0 12.288-10.24 22.528-22.528 22.528s-22.528-10.24-22.528-22.528v-81.92c2.048-55.296 51.2-102.4 108.544-102.4h708.608c59.392 0 106.496 47.104 108.544 106.496v77.824c-2.048 14.336-12.288 24.576-26.624 24.576zM866.304 1009.664H157.696c-59.392 0-106.496-47.104-108.544-106.496V819.2c0-12.288 10.24-22.528 22.528-22.528s22.528 10.24 22.528 22.528v79.872c0 34.816 28.672 61.44 61.44 61.44h708.608c32.768 0 59.392-26.624 61.44-59.392v-2.048-81.92c0-12.288 10.24-22.528 22.528-22.528s22.528 10.24 22.528 22.528v79.872c4.096 65.536-45.056 112.64-104.448 112.64z m83.968-110.592zM235.52 520.192c0 32.768 26.624 61.44 61.44 61.44 32.768 0 61.44-26.624 61.44-61.44 0-32.768-26.624-61.44-61.44-61.44-32.768 0-61.44 28.672-61.44 61.44zM460.8 520.192c0 32.768 26.624 61.44 61.44 61.44 32.768 0 61.44-26.624 61.44-61.44 0-32.768-26.624-61.44-61.44-61.44s-61.44 28.672-61.44 61.44zM684.032 520.192c0 32.768 26.624 61.44 61.44 61.44 32.768 0 61.44-26.624 61.44-61.44 0-32.768-26.624-61.44-61.44-61.44s-61.44 28.672-61.44 61.44z" fill="#bfbfbf" p-id="4920"></path></svg>