<?xml version="1.0" standalone="no"?><!DOCTYPE svg PUBLIC "-//W3C//DTD SVG 1.1//EN" "http://www.w3.org/Graphics/SVG/1.1/DTD/svg11.dtd"><svg t="1573452086435"  viewBox="0 0 1024 1024" version="1.1" xmlns="http://www.w3.org/2000/svg" p-id="12765" xmlns:xlink="http://www.w3.org/1999/xlink" width="128" height="128"><defs><style type="text/css"></style></defs><path d="M899.413333 66.56h-256a31.573333 31.573333 0 1 0 0 64h234.666667a20.48 20.48 0 0 1 20.48 20.48v232.106667a31.573333 31.573333 0 0 0 63.146667 0v-256a63.146667 63.146667 0 0 0-62.293334-60.586667z"  p-id="12766"></path><path d="M196.266667 481.28m20.48 0l597.333333 0q20.48 0 20.48 20.48l0 23.04q0 20.48-20.48 20.48l-597.333333 0q-20.48 0-20.48-20.48l0-23.04q0-20.48 20.48-20.48Z" p-id="12767"></path><path d="M930.986667 612.693333a31.573333 31.573333 0 0 0-31.573334 29.013334v231.253333a20.48 20.48 0 0 1-20.48 20.48H643.413333a31.573333 31.573333 0 0 0 0 64h256a63.146667 63.146667 0 0 0 63.146667-63.146667v-256a31.573333 31.573333 0 0 0-31.573333-25.6zM100.693333 415.573333a31.573333 31.573333 0 0 0 31.573334-29.866666V151.04a20.48 20.48 0 0 1 20.48-20.48h235.52a31.573333 31.573333 0 1 0 0-64h-256a63.146667 63.146667 0 0 0-63.146667 63.146667v256a31.573333 31.573333 0 0 0 31.573333 29.866666zM388.266667 896.853333H152.746667a20.48 20.48 0 0 1-20.48-20.48V644.266667a31.573333 31.573333 0 0 0-62.293334 0v256a63.146667 63.146667 0 0 0 63.146667 63.146666h256a31.573333 31.573333 0 0 0 0-64z" p-id="12768"></path></svg>